<svg xmlns="http://www.w3.org/2000/svg" xmlns:xlink="http://www.w3.org/1999/xlink" width="92" zoomAndPan="magnify" viewBox="0 0 69 38.999999" height="52" preserveAspectRatio="xMidYMid meet" version="1.0"><defs><g/><clipPath id="484a8b4856"><path d="M 11.144531 7.550781 L 19.394531 7.550781 L 19.394531 15.800781 L 11.144531 15.800781 Z M 11.144531 7.550781 " clip-rule="nonzero"/></clipPath><clipPath id="b344b4196a"><path d="M 17.363281 14.664062 L 54 14.664062 L 54 32.472656 L 17.363281 32.472656 Z M 17.363281 14.664062 " clip-rule="nonzero"/></clipPath><clipPath id="da6fc07c28"><path d="M 26.265625 14.664062 L 45.0625 14.664062 C 47.425781 14.664062 49.6875 15.601562 51.359375 17.273438 C 53.027344 18.941406 53.964844 21.207031 53.964844 23.566406 C 53.964844 25.929688 53.027344 28.195312 51.359375 29.863281 C 49.6875 31.535156 47.425781 32.472656 45.0625 32.472656 L 26.265625 32.472656 C 23.90625 32.472656 21.640625 31.535156 19.972656 29.863281 C 18.300781 28.195312 17.363281 25.929688 17.363281 23.566406 C 17.363281 21.207031 18.300781 18.941406 19.972656 17.273438 C 21.640625 15.601562 23.90625 14.664062 26.265625 14.664062 Z M 26.265625 14.664062 " clip-rule="nonzero"/></clipPath></defs><g clip-path="url(#484a8b4856)"><path fill="#fdc301" d="M 14.410156 15.945312 C 14.382812 15.929688 14.347656 15.902344 14.335938 15.882812 C 14.320312 15.859375 14.234375 15.660156 14.148438 15.4375 C 14.058594 15.210938 13.929688 14.882812 13.859375 14.707031 C 13.789062 14.527344 13.152344 12.910156 12.4375 11.105469 C 11.59375 8.972656 11.144531 7.8125 11.144531 7.777344 C 11.144531 7.667969 11.273438 7.550781 11.375 7.570312 C 11.402344 7.574219 12.042969 7.828125 12.796875 8.136719 C 13.554688 8.441406 14.558594 8.851562 15.023438 9.039062 C 19.1875 10.730469 19.25 10.757812 19.296875 10.816406 C 19.382812 10.917969 19.367188 11.066406 19.265625 11.121094 C 19.238281 11.132812 18.382812 11.34375 17.363281 11.59375 C 16.339844 11.839844 15.503906 12.042969 15.496094 12.046875 C 15.492188 12.054688 15.230469 13.277344 14.898438 14.851562 C 14.867188 14.980469 14.8125 15.257812 14.769531 15.457031 C 14.726562 15.660156 14.679688 15.847656 14.667969 15.867188 C 14.621094 15.957031 14.507812 15.992188 14.410156 15.945312 Z M 14.410156 15.945312 " fill-opacity="1" fill-rule="nonzero"/></g><g clip-path="url(#b344b4196a)"><g clip-path="url(#da6fc07c28)"><path fill="#ffffff" d="M 17.363281 14.664062 L 53.953125 14.664062 L 53.953125 32.472656 L 17.363281 32.472656 Z M 17.363281 14.664062 " fill-opacity="1" fill-rule="nonzero"/></g></g><g fill="#000000" fill-opacity="1"><g transform="translate(24.74377, 26.769374)"><g><path d="M 4.59375 0 L 2.5625 0 L 2.5625 -2.4375 L 0.0625 -6.296875 L 2.390625 -6.296875 L 3.59375 -4.203125 L 3.640625 -4.203125 L 4.84375 -6.296875 L 7.046875 -6.296875 L 4.59375 -2.4375 Z M 4.59375 0 "/></g></g></g><g fill="#000000" fill-opacity="1"><g transform="translate(31.32074, 26.769374)"><g><path d="M 3.8125 -6.40625 C 4.894531 -6.40625 5.734375 -6.128906 6.328125 -5.578125 C 6.921875 -5.023438 7.21875 -4.21875 7.21875 -3.15625 C 7.21875 -2.09375 6.921875 -1.28125 6.328125 -0.71875 C 5.734375 -0.164062 4.894531 0.109375 3.8125 0.109375 C 2.71875 0.109375 1.875 -0.164062 1.28125 -0.71875 C 0.695312 -1.269531 0.40625 -2.082031 0.40625 -3.15625 C 0.40625 -4.21875 0.695312 -5.023438 1.28125 -5.578125 C 1.875 -6.128906 2.71875 -6.40625 3.8125 -6.40625 Z M 3.8125 -4.90625 C 3.375 -4.90625 3.039062 -4.769531 2.8125 -4.5 C 2.59375 -4.238281 2.484375 -3.882812 2.484375 -3.4375 L 2.484375 -2.859375 C 2.484375 -2.410156 2.59375 -2.054688 2.8125 -1.796875 C 3.039062 -1.535156 3.375 -1.40625 3.8125 -1.40625 C 4.238281 -1.40625 4.566406 -1.535156 4.796875 -1.796875 C 5.023438 -2.054688 5.140625 -2.410156 5.140625 -2.859375 L 5.140625 -3.4375 C 5.140625 -3.882812 5.023438 -4.238281 4.796875 -4.5 C 4.566406 -4.769531 4.238281 -4.90625 3.8125 -4.90625 Z M 3.8125 -4.90625 "/></g></g></g><g fill="#000000" fill-opacity="1"><g transform="translate(38.951122, 26.769374)"><g><path d="M 6.953125 -2.53125 C 6.953125 -1.675781 6.675781 -1.019531 6.125 -0.5625 C 5.582031 -0.113281 4.8125 0.109375 3.8125 0.109375 C 2.8125 0.109375 2.035156 -0.113281 1.484375 -0.5625 C 0.941406 -1.019531 0.671875 -1.675781 0.671875 -2.53125 L 0.671875 -6.296875 L 2.703125 -6.296875 L 2.703125 -2.5625 C 2.703125 -2.207031 2.796875 -1.925781 2.984375 -1.71875 C 3.171875 -1.507812 3.445312 -1.40625 3.8125 -1.40625 C 4.164062 -1.40625 4.4375 -1.507812 4.625 -1.71875 C 4.820312 -1.9375 4.921875 -2.21875 4.921875 -2.5625 L 4.921875 -6.296875 L 6.953125 -6.296875 Z M 6.953125 -2.53125 "/></g></g></g></svg>