<?xml version="1.0" encoding="UTF-8"?>
<svg version="1.1" xmlns="http://www.w3.org/2000/svg" width="456" height="258">
<path d="M0 0 C150.48 0 300.96 0 456 0 C456 85.14 456 170.28 456 258 C305.52 258 155.04 258 0 258 C0 172.86 0 87.72 0 0 Z " fill="#FDFDFD" transform="translate(0,0)"/>
<path d="M0 0 C8.70882319 4.47992679 13.15472194 13.66845013 17.63671875 21.90625 C18.8593668 24.13672324 20.08202322 26.3671919 21.3046875 28.59765625 C21.91747559 29.72059082 22.53026367 30.84352539 23.16162109 32.00048828 C24.93970252 35.21361141 26.77075038 38.38894931 28.625 41.55859375 C29.18558105 42.5343335 29.74616211 43.51007324 30.32373047 44.51538086 C31.37981703 46.35298417 32.45224286 48.18132751 33.54345703 49.99829102 C36.88115781 55.8975492 37.77365297 59.77540631 36.01171875 66.34375 C34.78904861 70.58089219 33.40219892 74.74304776 31.94921875 78.90625 C31.57216797 80.01033203 31.19511719 81.11441406 30.80664062 82.25195312 C29.88319402 84.95215775 28.95142157 87.64916892 28.01171875 90.34375 C25.08566718 87.62318616 23.11679035 85.08248919 21.26953125 81.546875 C20.76703857 80.59893066 20.2645459 79.65098633 19.74682617 78.67431641 C19.21549072 77.65772949 18.68415527 76.64114258 18.13671875 75.59375 C12.78976422 65.51605287 7.17595139 55.63369987 1.33056641 45.83691406 C0.76515137 44.88268555 0.19973633 43.92845703 -0.3828125 42.9453125 C-0.88659424 42.10307129 -1.39037598 41.26083008 -1.90942383 40.39306641 C-2.98828125 38.34375 -2.98828125 38.34375 -2.98828125 36.34375 C-3.64828125 36.34375 -4.30828125 36.34375 -4.98828125 36.34375 C-5.10288193 36.94385391 -5.2174826 37.54395782 -5.33555603 38.1622467 C-6.5592593 44.43952398 -7.99213277 50.63905326 -9.5546875 56.83984375 C-9.91311989 58.27288597 -9.91311989 58.27288597 -10.27879333 59.73487854 C-10.77938785 61.73425891 -11.28111481 63.73335607 -11.78393555 65.73217773 C-12.55466259 68.79668269 -13.32155061 71.86212973 -14.08789062 74.92773438 C-14.57659976 76.87766011 -15.0655243 78.82753187 -15.5546875 80.77734375 C-15.78386368 81.69293564 -16.01303986 82.60852753 -16.24916077 83.55186462 C-16.46285812 84.4002742 -16.67655548 85.24868378 -16.89672852 86.12280273 C-17.08388931 86.86763412 -17.27105011 87.61246552 -17.46388245 88.37986755 C-17.91042291 90.0521692 -18.44092477 91.70168055 -18.98828125 93.34375 C-28.22828125 93.34375 -37.46828125 93.34375 -46.98828125 93.34375 C-45.76362952 86.60816547 -44.56799198 80.29504015 -42.6328125 73.80078125 C-42.41030823 73.03733902 -42.18780396 72.27389679 -41.95855713 71.48731995 C-41.2445719 69.04204925 -40.52285454 66.59914318 -39.80078125 64.15625 C-39.30280908 62.45733901 -38.80533583 60.75828171 -38.30834961 59.05908203 C-37.32476401 55.69859326 -36.33834301 52.33895799 -35.34960938 48.97998047 C-33.85488 43.8973543 -32.38560558 38.80762555 -30.91821289 33.71704102 C-29.847725 30.01688288 -28.76135418 26.3216332 -27.66552734 22.62890625 C-27.23752045 21.18473014 -26.81291576 19.73953747 -26.39306641 18.29296875 C-24.12232839 10.51226139 -22.1322131 5.23486524 -15.30078125 0.46875 C-10.22445296 -1.25528602 -5.16415227 -1.70447462 0 0 Z " fill="#043147" transform="translate(89.98828125,71.65625)"/>
<path d="M0 0 C4.83675913 3.80949536 9.4510848 7.85336113 14 12 C14.55333008 12.50128418 15.10666016 13.00256836 15.67675781 13.51904297 C26.29134648 23.26011973 36.40894659 35.10655245 43 48 C42.67 48.66 42.34 49.32 42 50 C33.46182308 40.55185865 33.46182308 40.55185865 29.5 35.9375 C9.55776468 13.09373853 -16.2042545 -3.6417622 -45 -13 C-46.03382813 -13.34160156 -47.06765625 -13.68320312 -48.1328125 -14.03515625 C-56.36442942 -16.25294778 -64.57884948 -16.30509809 -73.0625 -16.375 C-74.23393555 -16.38901855 -75.40537109 -16.40303711 -76.61230469 -16.41748047 C-100.66850028 -16.28604426 -119.83469452 -5.14313755 -136.49609375 11.4921875 C-148.42832452 24.03871408 -156.04116183 38.28744363 -163 54 C-163.45890625 55.0003125 -163.9178125 56.000625 -164.390625 57.03125 C-171.43478578 72.99801443 -176.35064442 89.96967397 -180 107 C-186.6 107 -193.2 107 -200 107 C-198.8742344 96.86810962 -198.8742344 96.86810962 -197.51171875 92.66015625 C-197.21716797 91.74169922 -196.92261719 90.82324219 -196.61914062 89.87695312 C-196.15797852 88.48379883 -196.15797852 88.48379883 -195.6875 87.0625 C-195.39166016 86.13759766 -195.09582031 85.21269531 -194.79101562 84.25976562 C-191.68429207 74.68461549 -187.8966952 65.51760151 -183.5625 56.4375 C-183.19318359 55.65181641 -182.82386719 54.86613281 -182.44335938 54.05664062 C-166.67793553 20.85908435 -142.15561954 -7.51151549 -107.00097656 -20.31469727 C-70.68294582 -32.75304674 -30.15760137 -22.4930258 0 0 Z " fill="#F48622" transform="translate(325,58)"/>
<path d="M0 0 C2.1409953 2.1409953 2.53960183 3.19374687 3.41015625 6.0234375 C3.6728833 6.86455078 3.93561035 7.70566406 4.20629883 8.57226562 C4.63011841 9.95961914 4.63011841 9.95961914 5.0625 11.375 C5.69216433 13.39339895 6.3223995 15.4116199 6.953125 17.4296875 C7.28634766 18.50186523 7.61957031 19.57404297 7.96289062 20.67871094 C9.71671054 26.29522839 11.51325061 31.89789946 13.3125 37.5 C13.68181641 38.65282471 14.05113281 39.80564941 14.43164062 40.9934082 C16.51097825 47.45945746 18.63015312 53.91047806 20.796875 60.34765625 C21.02847824 61.03681122 21.26008148 61.72596619 21.498703 62.43600464 C22.62666389 65.79026079 23.75989009 69.14259011 24.90161133 72.4921875 C25.30661865 73.69230469 25.71162598 74.89242187 26.12890625 76.12890625 C26.67140015 77.72327515 26.67140015 77.72327515 27.22485352 79.34985352 C28 82 28 82 28 85 C19.09 85 10.18 85 1 85 C-0.85194761 80.67878892 -2.39893381 77.03827747 -3.61328125 72.62109375 C-3.88914063 71.62762939 -4.165 70.63416504 -4.44921875 69.6105957 C-4.73410156 68.56347412 -5.01898438 67.51635254 -5.3125 66.4375 C-5.76109375 64.80204224 -5.76109375 64.80204224 -6.21875 63.13354492 C-6.83817404 60.87490142 -7.45616534 58.61586452 -8.07275391 56.35644531 C-8.96589916 53.1234382 -9.88947451 49.90088202 -10.82421875 46.6796875 C-11.24803833 45.19577515 -11.24803833 45.19577515 -11.68041992 43.68188477 C-12.21436055 41.81253589 -12.75706771 39.9456618 -13.30981445 38.08178711 C-13.54788818 37.23624268 -13.78596191 36.39069824 -14.03125 35.51953125 C-14.24330078 34.78839111 -14.45535156 34.05725098 -14.67382812 33.30395508 C-15.43381188 27.93571654 -13.64255529 23.82644068 -11.09375 19.19921875 C-10.51496094 18.14025391 -9.93617188 17.08128906 -9.33984375 15.99023438 C-8.73269531 14.90033203 -8.12554687 13.81042969 -7.5 12.6875 C-6.89285156 11.57826172 -6.28570312 10.46902344 -5.66015625 9.32617188 C-1.18113308 1.18113308 -1.18113308 1.18113308 0 0 Z " fill="#073349" transform="translate(186,80)"/>
<path d="M0 0 C5.96507981 4.44905059 11.56121186 9.27002064 17.05859375 14.28125 C17.61192383 14.78253418 18.16525391 15.28381836 18.73535156 15.80029297 C29.34994023 25.54136973 39.46754034 37.38780245 46.05859375 50.28125 C45.72859375 50.94125 45.39859375 51.60125 45.05859375 52.28125 C36.52041683 42.83310865 36.52041683 42.83310865 32.55859375 38.21875 C12.61635843 15.37498853 -13.14566075 -1.3605122 -41.94140625 -10.71875 C-42.97523438 -11.06035156 -44.0090625 -11.40195312 -45.07421875 -11.75390625 C-53.30583567 -13.97169778 -61.52025573 -14.02384809 -70.00390625 -14.09375 C-71.1753418 -14.10776855 -72.34677734 -14.12178711 -73.55371094 -14.13623047 C-91.23121984 -14.03964559 -105.21733433 -8.09163551 -119.94140625 1.28125 C-119.94140625 -0.36875 -119.94140625 -2.01875 -119.94140625 -3.71875 C-117.63140625 -4.37875 -115.32140625 -5.03875 -112.94140625 -5.71875 C-113.27140625 -6.04875 -113.60140625 -6.37875 -113.94140625 -6.71875 C-115.97180027 -6.68652152 -118.00268717 -6.65063381 -120.03125 -6.55859375 C-121.94140625 -6.71875 -121.94140625 -6.71875 -123.94140625 -8.71875 C-114.13242093 -13.9671941 -104.85003609 -18.24285873 -93.94140625 -20.71875 C-93.21743652 -20.89462646 -92.4934668 -21.07050293 -91.74755859 -21.25170898 C-60.04828901 -28.4109435 -26.19582502 -18.09007837 0 0 Z " fill="#EF882C" transform="translate(321.94140625,55.71875)"/>
<path d="M0 0 C1.01004593 0.00490448 2.02009186 0.00980896 3.06074524 0.01486206 C4.77338814 0.0207988 4.77338814 0.0207988 6.52062988 0.02685547 C11.76198429 0.07464891 17.00321686 0.12417922 22.24433899 0.19308472 C25.69311729 0.23671451 29.14144097 0.2526352 32.59045696 0.26231575 C35.88720905 0.27832943 39.18347313 0.32857485 42.47993469 0.37374878 C43.71450912 0.37295319 44.94908356 0.37215759 46.22106934 0.37133789 C55.79633664 0.56052978 55.79633664 0.56052978 59.51435852 3.474823 C61.71821594 6.11593628 61.71821594 6.11593628 62.21821594 9.11593628 C61.71821594 12.11593628 61.71821594 12.11593628 60.59321594 14.67843628 C59.4241308 17.16583239 59.4241308 17.16583239 60.59321594 19.92843628 C60.96446594 20.65031128 61.33571594 21.37218628 61.71821594 22.11593628 C58.90571594 22.42843628 58.90571594 22.42843628 55.71821594 22.11593628 C54.03071594 19.67843628 54.03071594 19.67843628 52.71821594 17.11593628 C51.23321594 16.62093628 51.23321594 16.62093628 49.71821594 16.11593628 C49.73884094 16.92031128 49.75946594 17.72468628 49.78071594 18.55343628 C49.71821594 21.11593628 49.71821594 21.11593628 48.71821594 22.11593628 C47.05154928 22.11593628 45.38488261 22.11593628 43.71821594 22.11593628 C42.72821594 22.44593628 41.73821594 22.77593628 40.71821594 23.11593628 C38.8170929 23.13766479 38.8170929 23.13766479 36.70649719 22.99484253 C35.94917297 22.94650269 35.19184875 22.89816284 34.41157532 22.84835815 C33.62589172 22.79228394 32.84020813 22.73620972 32.03071594 22.67843628 C31.23343079 22.62622925 30.43614563 22.57402222 29.61470032 22.52023315 C27.64885072 22.39074606 25.6834793 22.25403587 23.71821594 22.11593628 C23.22321594 14.69093628 23.22321594 14.69093628 22.71821594 7.11593628 C20.40821594 6.78593628 18.09821594 6.45593628 15.71821594 6.11593628 C15.71821594 11.06593628 15.71821594 16.01593628 15.71821594 21.11593628 C14.06821594 21.11593628 12.41821594 21.11593628 10.71821594 21.11593628 C10.71821594 16.16593628 10.71821594 11.21593628 10.71821594 6.11593628 C8.40821594 6.11593628 6.09821594 6.11593628 3.71821594 6.11593628 C3.38821594 11.39593628 3.05821594 16.67593628 2.71821594 22.11593628 C-3.28178406 22.11593628 -3.28178406 22.11593628 -5.39897156 20.14718628 C-6.26908875 18.89421753 -6.26908875 18.89421753 -7.15678406 17.61593628 C-8.05010437 16.36296753 -8.05010437 16.36296753 -8.96147156 15.08468628 C-9.39717468 14.43499878 -9.83287781 13.78531128 -10.28178406 13.11593628 C-10.61178406 16.08593628 -10.94178406 19.05593628 -11.28178406 22.11593628 C-13.26178406 22.11593628 -15.24178406 22.11593628 -17.28178406 22.11593628 C-17.28178406 15.18593628 -17.28178406 8.25593628 -17.28178406 1.11593628 C-12.28178406 1.11593628 -12.28178406 1.11593628 -10.04350281 3.30343628 C-9.35901062 4.23156128 -8.67451843 5.15968628 -7.96928406 6.11593628 C-7.27190125 7.04406128 -6.57451843 7.97218628 -5.85600281 8.92843628 C-5.33651062 9.65031128 -4.81701843 10.37218628 -4.28178406 11.11593628 C-4.22119812 10.40566284 -4.16061218 9.6953894 -4.09819031 8.96359253 C-4.01440125 8.04449097 -3.93061218 7.1253894 -3.84428406 6.17843628 C-3.76307312 5.26191284 -3.68186218 4.3453894 -3.59819031 3.40109253 C-3.17578629 0.35039688 -3.0881151 0.15690555 0 0 Z " fill="#EFFAFB" transform="translate(190.2817840576172,172.88406372070313)"/>
<path d="M0 0 C3.79692922 3.36545999 6.64710005 6.22263153 7.30078125 11.3671875 C7.32552725 16.66283072 7.12787238 20.51671625 4 25 C-0.32026949 29.34387752 -4.07506074 31.15300001 -10.1875 31.4375 C-15.48751871 31.38836075 -18.45020645 30.18117055 -22.40625 26.6953125 C-26.11304715 22.75229788 -27.17556369 19.30222587 -27.4375 14 C-27.24788328 8.50111517 -25.46791534 5.42832312 -21.5390625 1.5625 C-14.99426549 -4.28462829 -7.50462807 -4.73117857 0 0 Z " fill="#043146" transform="translate(143,59)"/>
<path d="M0 0 C-0.33 1.65 -0.66 3.3 -1 5 C-3.97 4.67 -6.94 4.34 -10 4 C-10 4.99 -10 5.98 -10 7 C-8.1128125 7.1546875 -8.1128125 7.1546875 -6.1875 7.3125 C-3.68202542 7.64065065 -2.18882396 7.88788577 0 9.1875 C1.52678315 11.95479446 1.45142487 13.90451515 1 17 C-3.67381353 21.5757615 -9.82091642 20.92054591 -16 21 C-22.01003781 20.83743239 -28.00460687 20.43737436 -34 20 C-34.33 16.04 -34.66 12.08 -35 8 C-39.27223772 10.13611886 -39.56698996 10.44177447 -41.1875 14.5625 C-42.94919786 18.94919786 -42.94919786 18.94919786 -44 20 C-45.66617115 20.04063832 -47.33388095 20.042721 -49 20 C-57 4.57142857 -57 4.57142857 -57 0 C-55.02 0 -53.04 0 -51 0 C-50.72285156 0.62648437 -50.44570312 1.25296875 -50.16015625 1.8984375 C-49.79792969 2.71570313 -49.43570313 3.53296875 -49.0625 4.375 C-48.70285156 5.18710938 -48.34320313 5.99921875 -47.97265625 6.8359375 C-47.3430097 8.23683785 -46.68687358 9.62625284 -46 11 C-45.65066406 10.21753906 -45.30132812 9.43507812 -44.94140625 8.62890625 C-44.48636719 7.61699219 -44.03132813 6.60507813 -43.5625 5.5625 C-43.11003906 4.55316406 -42.65757813 3.54382813 -42.19140625 2.50390625 C-41 0 -41 0 -40 -1 C-35.76361749 -1.42095041 -31.502934 -1.5190892 -27.25 -1.6875 C-25.48849609 -1.77741211 -25.48849609 -1.77741211 -23.69140625 -1.86914062 C-15.55706318 -2.19576716 -7.99307062 -1.53014493 0 0 Z " fill="#ECF6F8" transform="translate(151,175)"/>
<path d="M0 0 C2.941381 2.46115553 4.57817389 4.21508291 5.47265625 8 C5.76922957 12.01514651 5.14633646 13.81900491 2.625 16.9375 C-1.51904393 20.19353452 -4.81493742 20.55731959 -10 20 C-12.87472735 18.75011855 -14.44101438 17.74531416 -16.3125 15.25 C-17.31199111 11.9789382 -17.3581657 9.40257412 -17 6 C-12.74736138 -0.83459779 -7.52512068 -2.26289216 0 0 Z " fill="#15394C" transform="translate(88,175)"/>
<path d="M0 0 C3.6578218 2.03993908 5.66946174 3.50419262 8 7 C8.45971784 11.96495273 8.15065843 15.06167696 5 19 C0.81152354 21.51308587 -3.23513326 22.06983191 -8 21 C-10.77125714 19.09229142 -12.46050738 16.98022534 -14 14 C-14.73918787 9.71271035 -14.54776412 7.8803352 -12.25 4.1875 C-8.34562365 0.39157855 -5.49379774 -0.65925573 0 0 Z " fill="#113847" transform="translate(341,174)"/>
<path d="M0 0 C1.65 0 3.3 0 5 0 C6.80078125 2.1875 6.80078125 2.1875 8.3125 5 C8.82425781 5.928125 9.33601563 6.85625 9.86328125 7.8125 C10.23839844 8.534375 10.61351562 9.25625 11 10 C11.44730469 9.278125 11.89460938 8.55625 12.35546875 7.8125 C13.26232422 6.4203125 13.26232422 6.4203125 14.1875 5 C14.77917969 4.071875 15.37085938 3.14375 15.98046875 2.1875 C16.64691406 1.465625 17.31335938 0.74375 18 0 C19.65 0 21.3 0 23 0 C23 6.6 23 13.2 23 20 C21.35 20 19.7 20 18 20 C17.67 17.03 17.34 14.06 17 11 C15.68 13.31 14.36 15.62 13 18 C11.1875 17.8125 11.1875 17.8125 9 17 C7.25 14.4375 7.25 14.4375 6 12 C5.67 14.31 5.34 16.62 5 19 C3.35 19 1.7 19 0 19 C0 12.73 0 6.46 0 0 Z " fill="#11394A" transform="translate(45,175)"/>
<path d="M0 0 C13.3445239 -0.49424163 13.3445239 -0.49424163 16.4296875 1.83203125 C18.54913467 4.75813369 18.43448262 6.4517253 18 10 C17.62875 10.845625 17.2575 11.69125 16.875 12.5625 C15.70591486 15.04989611 15.70591486 15.04989611 16.875 17.8125 C17.431875 18.8953125 17.431875 18.8953125 18 20 C15.1875 20.3125 15.1875 20.3125 12 20 C10.3125 17.5625 10.3125 17.5625 9 15 C8.01 14.67 7.02 14.34 6 14 C6.020625 14.804375 6.04125 15.60875 6.0625 16.4375 C6 19 6 19 5 20 C3.35 20 1.7 20 0 20 C0 13.4 0 6.8 0 0 Z " fill="#14384D" transform="translate(234,175)"/>
<path d="M0 0 C6 0 6 0 8.1171875 1.96875 C8.69726562 2.8040625 9.27734375 3.639375 9.875 4.5 C10.47054688 5.3353125 11.06609375 6.170625 11.6796875 7.03125 C12.11539062 7.6809375 12.55109375 8.330625 13 9 C13.33 6.03 13.66 3.06 14 0 C15.65 0 17.3 0 19 0 C19 6.6 19 13.2 19 20 C13.80869384 18.96173877 13.26624409 18.74065446 10.1875 14.9375 C9.28064453 13.83728516 9.28064453 13.83728516 8.35546875 12.71484375 C7.90816406 12.14894531 7.46085937 11.58304688 7 11 C6.67 13.97 6.34 16.94 6 20 C4.02 20 2.04 20 0 20 C0 13.4 0 6.8 0 0 Z " fill="#193E53" transform="translate(352,175)"/>
<path d="M0 0 C5 0 5 0 7.23828125 2.1875 C7.92277344 3.115625 8.60726562 4.04375 9.3125 5 C10.00988281 5.928125 10.70726562 6.85625 11.42578125 7.8125 C11.94527344 8.534375 12.46476563 9.25625 13 10 C13.33 7.03 13.66 4.06 14 1 C15.65 1 17.3 1 19 1 C19 7.27 19 13.54 19 20 C14 20 14 20 11.98046875 18.25 C11.09294922 17.13625 11.09294922 17.13625 10.1875 16 C9.58292969 15.2575 8.97835937 14.515 8.35546875 13.75 C7.90816406 13.1725 7.46085938 12.595 7 12 C6.67 14.97 6.34 17.94 6 21 C4.02 21 2.04 21 0 21 C0 14.07 0 7.14 0 0 Z " fill="#1D4355" transform="translate(173,174)"/>
<path d="M0 0 C5 0 5 0 7.23828125 1.96875 C7.92277344 2.8040625 8.60726563 3.639375 9.3125 4.5 C10.00988281 5.3353125 10.70726562 6.170625 11.42578125 7.03125 C11.94527344 7.6809375 12.46476562 8.330625 13 9 C13.33 6.03 13.66 3.06 14 0 C15.65 0 17.3 0 19 0 C19 6.6 19 13.2 19 20 C14 20 14 20 11.98046875 18.03125 C11.38878906 17.1959375 10.79710937 16.360625 10.1875 15.5 C9.28064453 14.24703125 9.28064453 14.24703125 8.35546875 12.96875 C7.90816406 12.3190625 7.46085937 11.669375 7 11 C6.67 13.97 6.34 16.94 6 20 C4.02 20 2.04 20 0 20 C0 13.4 0 6.8 0 0 Z " fill="#153E4D" transform="translate(255,175)"/>
<path d="M0 0 C5.28 0 10.56 0 16 0 C16 1.32 16 2.64 16 4 C12.7 4 9.4 4 6 4 C6 4.99 6 5.98 6 7 C8.97 7 11.94 7 15 7 C15 8.65 15 10.3 15 12 C12.03 12 9.06 12 6 12 C6 12.99 6 13.98 6 15 C9.3 15 12.6 15 16 15 C16 16.65 16 18.3 16 20 C10.72 20 5.44 20 0 20 C0 13.4 0 6.8 0 0 Z " fill="#2A4F62" transform="translate(117,175)"/>
<path d="M0 0 C2.31 0 4.62 0 7 0 C8.33934716 2.95564708 9.67044247 5.9149378 11 8.875 C11.3815625 9.71675781 11.763125 10.55851563 12.15625 11.42578125 C12.5171875 12.23144531 12.878125 13.03710938 13.25 13.8671875 C13.58515625 14.61081543 13.9203125 15.35444336 14.265625 16.12060547 C15 18 15 18 15 20 C13.02 20 11.04 20 9 20 C8.67 19.01 8.34 18.02 8 17 C5.03 16.67 2.06 16.34 -1 16 C-1.33 17.32 -1.66 18.64 -2 20 C-3.98 20 -5.96 20 -8 20 C-6.54884678 15.42111848 -4.79418096 11.02350565 -2.875 6.625 C-2.59785156 5.98433594 -2.32070313 5.34367188 -2.03515625 4.68359375 C-1.35899615 3.12143075 -0.67981293 1.56057685 0 0 Z " fill="#0B323D" transform="translate(284,175)"/>
<path d="M0 0 C2.31 0 4.62 0 7 0 C8.33934716 2.95564708 9.67044247 5.9149378 11 8.875 C11.3815625 9.71675781 11.763125 10.55851563 12.15625 11.42578125 C12.5171875 12.23144531 12.878125 13.03710938 13.25 13.8671875 C13.58515625 14.61081543 13.9203125 15.35444336 14.265625 16.12060547 C15 18 15 18 15 20 C13.02 20 11.04 20 9 20 C8.67 19.01 8.34 18.02 8 17 C5.03 16.67 2.06 16.34 -1 16 C-1.33 17.32 -1.66 18.64 -2 20 C-3.98 20 -5.96 20 -8 20 C-6.54884678 15.42111848 -4.79418096 11.02350565 -2.875 6.625 C-2.59785156 5.98433594 -2.32070313 5.34367188 -2.03515625 4.68359375 C-1.35899615 3.12143075 -0.67981293 1.56057685 0 0 Z " fill="#0B3445" transform="translate(381,175)"/>
<path d="M0 0 C4.95 0 9.9 0 15 0 C15 1.32 15 2.64 15 4 C11.7 4 8.4 4 5 4 C5 5.32 5 6.64 5 8 C7.97 8 10.94 8 14 8 C14 9.32 14 10.64 14 12 C11.03 12 8.06 12 5 12 C5 12.99 5 13.98 5 15 C8.63 15 12.26 15 16 15 C16 16.65 16 18.3 16 20 C10.72 20 5.44 20 0 20 C0 13.4 0 6.8 0 0 Z " fill="#1E4355" transform="translate(215,175)"/>
<path d="M0 0 C-0.33 1.65 -0.66 3.3 -1 5 C-3.97 4.67 -6.94 4.34 -10 4 C-10 4.99 -10 5.98 -10 7 C-8.1128125 7.1546875 -8.1128125 7.1546875 -6.1875 7.3125 C-3.68202542 7.64065065 -2.18882396 7.88788577 0 9.1875 C1.52678315 11.95479446 1.45142487 13.90451515 1 17 C-1.91206156 19.83227905 -4.05237155 20.41129076 -8.0625 20.375 C-8.91972656 20.38273437 -9.77695313 20.39046875 -10.66015625 20.3984375 C-13.40312296 19.93135469 -14.28099347 19.13044088 -16 17 C-15.01 16.01 -14.02 15.02 -13 14 C-12.34 14.33 -11.68 14.66 -11 15 C-9.00039988 15.039992 -6.99952758 15.04346799 -5 15 C-4.67 14.34 -4.34 13.68 -4 13 C-4.62648437 12.87882813 -5.25296875 12.75765625 -5.8984375 12.6328125 C-7.12433594 12.38144531 -7.12433594 12.38144531 -8.375 12.125 C-9.18710938 11.96257812 -9.99921875 11.80015625 -10.8359375 11.6328125 C-13 11 -13 11 -15 9 C-15.4375 5.5625 -15.4375 5.5625 -15 2 C-10.67444807 -2.06339727 -5.39468482 -1.79822827 0 0 Z " fill="#11384A" transform="translate(151,175)"/>
<path d="M0 0 C1.98 0 3.96 0 6 0 C6.27714844 0.62648437 6.55429688 1.25296875 6.83984375 1.8984375 C7.20207031 2.71570313 7.56429687 3.53296875 7.9375 4.375 C8.29714844 5.18710938 8.65679687 5.99921875 9.02734375 6.8359375 C9.6569903 8.23683785 10.31312642 9.62625284 11 11 C12.65 7.37 14.3 3.74 16 0 C17.98 0 19.96 0 22 0 C20.88368045 2.96168233 19.75548276 5.91869787 18.625 8.875 C18.30789062 9.71675781 17.99078125 10.55851563 17.6640625 11.42578125 C17.3546875 12.23144531 17.0453125 13.03710938 16.7265625 13.8671875 C16.30238037 14.98262939 16.30238037 14.98262939 15.86962891 16.12060547 C15 18 15 18 13 20 C10.375 20.125 10.375 20.125 8 20 C0 4.57142857 0 4.57142857 0 0 Z " fill="#143C4D" transform="translate(94,175)"/>
<path d="M0 0 C0.33 0.66 0.66 1.32 1 2 C0.67 2.99 0.34 3.98 0 5 C0.99 5.33 1.98 5.66 3 6 C0.03 11.61 -2.94 17.22 -6 23 C-7.98 23 -9.96 23 -12 23 C-12.4021875 24.2065625 -12.4021875 24.2065625 -12.8125 25.4375 C-13.204375 26.283125 -13.59625 27.12875 -14 28 C-14.99 28.33 -15.98 28.66 -17 29 C-17.495 31.475 -17.495 31.475 -18 34 C-18.66 34 -19.32 34 -20 34 C-16.36147126 22.20554211 -8.81492083 8.81492083 0 0 Z " fill="#F6F8FA" transform="translate(183,75)"/>
<path d="M0 0 C5.94 0 11.88 0 18 0 C18 1.32 18 2.64 18 4 C16.02 4 14.04 4 12 4 C12 9.28 12 14.56 12 20 C10.02 20 8.04 20 6 20 C6 14.72 6 9.44 6 4 C4.02 4 2.04 4 0 4 C0 2.68 0 1.36 0 0 Z " fill="#113949" transform="translate(298,175)"/>
<path d="M0 0 C1.98 0 3.96 0 6 0 C6 4.95 6 9.9 6 15 C8.97 15 11.94 15 15 15 C15 16.65 15 18.3 15 20 C10.05 20 5.1 20 0 20 C0 13.4 0 6.8 0 0 Z " fill="#092C3D" transform="translate(398,175)"/>
<path d="M0 0 C0 0.66 0 1.32 0 2 C-2.31 2 -4.62 2 -7 2 C-7 2.66 -7 3.32 -7 4 C-7.93972656 4.18175781 -7.93972656 4.18175781 -8.8984375 4.3671875 C-9.71570313 4.53476562 -10.53296875 4.70234375 -11.375 4.875 C-12.59316406 5.11863281 -12.59316406 5.11863281 -13.8359375 5.3671875 C-16.18673923 5.86658932 -16.18673923 5.86658932 -18 8 C-17.24849977 11.27773504 -17.24849977 11.27773504 -14 13 C-14.78375 13.37125 -15.5675 13.7425 -16.375 14.125 C-21.07739156 16.46489195 -25.52073579 19.26463905 -30 22 C-30 20.35 -30 18.7 -30 17 C-27.69 16.34 -25.38 15.68 -23 15 C-23.33 14.67 -23.66 14.34 -24 14 C-26.03039402 14.03222848 -28.06128092 14.06811619 -30.08984375 14.16015625 C-32 14 -32 14 -34 12 C-11.57281553 0 -11.57281553 0 0 0 Z " fill="#EB8D36" transform="translate(232,35)"/>
<path d="M0 0 C5.61 0 11.22 0 17 0 C17 1.32 17 2.64 17 4 C15.02 4 13.04 4 11 4 C11 8.95 11 13.9 11 19 C9.35 19 7.7 19 6 19 C6 14.05 6 9.1 6 4 C4.02 4 2.04 4 0 4 C0 2.68 0 1.36 0 0 Z " fill="#062F40" transform="translate(195,175)"/>
<path d="M0 0 C2.9901438 2.50195706 4.75705979 4.219504 5.296875 8.17578125 C5.3125 10.375 5.3125 10.375 5 14 C3.02 14.99 3.02 14.99 1 16 C0.01 12.7 -0.98 9.4 -2 6 C-7.78108774 4.81394684 -7.78108774 4.81394684 -13 7 C-13.99 7.495 -13.99 7.495 -15 8 C-13.52371485 1.35671684 -13.52371485 1.35671684 -11.19921875 -0.2265625 C-7.34644241 -1.58153535 -3.87250877 -1.16450886 0 0 Z " fill="#0D314B" transform="translate(88,175)"/>
<path d="M0 0 C1.65 0 3.3 0 5 0 C5.33 1.32 5.66 2.64 6 4 C6.99 4 7.98 4 9 4 C9.33 3.01 9.66 2.02 10 1 C11.25257892 3.50515784 11.13557273 5.22075895 11 8 C10.67 8.99 10.34 9.98 10 11 C10.87914688 13.6569191 10.87914688 13.6569191 12 16 C9.1875 16.3125 9.1875 16.3125 6 16 C4.3125 13.5625 4.3125 13.5625 3 11 C2.01 10.67 1.02 10.34 0 10 C0 11.65 0 13.3 0 15 C-0.33 15 -0.66 15 -1 15 C-1.04241723 12.66705225 -1.04092937 10.33297433 -1 8 C-0.67 7.67 -0.34 7.34 0 7 C0.04092937 4.66702567 0.04241723 2.33294775 0 0 Z " fill="#0D3E49" transform="translate(240,179)"/>
<path d="M0 0 C19.14 0.33 38.28 0.66 58 1 C58 1.33 58 1.66 58 2 C53.05 2.33 48.1 2.66 43 3 C42.67 3.99 42.34 4.98 42 6 C42 4.68 42 3.36 42 2 C37.05 2 32.1 2 27 2 C27 8.6 27 15.2 27 22 C26.67 22 26.34 22 26 22 C25.93941406 20.97519531 25.87882812 19.95039063 25.81640625 18.89453125 C25.73194974 17.53384305 25.64730433 16.17316657 25.5625 14.8125 C25.52318359 14.13896484 25.48386719 13.46542969 25.44335938 12.77148438 C25.2078078 9.05701727 24.73420901 5.67104506 24 2 C18.39 2 12.78 2 7 2 C5.97134997 6.11460014 5.66435325 10.04019864 5.4375 14.25 C5.39431641 14.99507812 5.35113281 15.74015625 5.30664062 16.5078125 C5.20103275 18.338349 5.10005799 20.16915176 5 22 C3.02 22 1.04 22 -1 22 C-1 21.67 -1 21.34 -1 21 C0.65 21 2.3 21 4 21 C4 14.73 4 8.46 4 2 C2.35 2 0.7 2 -1 2 C-0.67 1.34 -0.34 0.68 0 0 Z " fill="#B4CBD6" transform="translate(188,173)"/>
<path d="M0 0 C6.35925444 -0.34686842 11.07844126 0.74583661 17 3 C17.99 3.33 18.98 3.66 20 4 C20 4.66 20 5.32 20 6 C21.32 6 22.64 6 24 6 C24 6.66 24 7.32 24 8 C25.32 8 26.64 8 28 8 C28 9.32 28 10.64 28 12 C21.25 11.25 21.25 11.25 19 9 C16.67724823 8.59952556 14.34260643 8.2602896 12 8 C12 7.34 12 6.68 12 6 C8.7 5.34 5.4 4.68 2 4 C2 3.01 2 2.02 2 1 C1.34 0.67 0.68 0.34 0 0 Z " fill="#F5831C" transform="translate(276,39)"/>
<path d="M0 0 C1.65 0 3.3 0 5 0 C5 6.6 5 13.2 5 20 C3.35 20 1.7 20 0 20 C-2.3125 17.5 -2.3125 17.5 -4 15 C-2.125 11.125 -2.125 11.125 -1 10 C-0.76712992 8.31816052 -0.58735834 6.6287584 -0.4375 4.9375 C-0.31181641 3.55884766 -0.31181641 3.55884766 -0.18359375 2.15234375 C-0.12300781 1.44207031 -0.06242187 0.73179687 0 0 Z " fill="#072B3C" transform="translate(269,175)"/>
<path d="M0 0 C1.65 0 3.3 0 5 0 C5 6.6 5 13.2 5 20 C0.04150521 19.00830104 -1.03186426 18.73765242 -4 15 C-4 14.01 -4 13.02 -4 12 C-3.01 11.34 -2.02 10.68 -1 10 C-0.41810734 7.57478506 -0.41810734 7.57478506 -0.3125 4.875 C-0.21388672 3.50988281 -0.21388672 3.50988281 -0.11328125 2.1171875 C-0.07589844 1.41851562 -0.03851563 0.71984375 0 0 Z " fill="#072D3A" transform="translate(366,175)"/>
<path d="M0 0 C1.98 0 3.96 0 6 0 C6 6.6 6 13.2 6 20 C4.02 20 2.04 20 0 20 C0 13.4 0 6.8 0 0 Z " fill="#36555D" transform="translate(163,175)"/>
<path d="M0 0 C1.98 0 3.96 0 6 0 C6 6.6 6 13.2 6 20 C4.02 20 2.04 20 0 20 C0 13.4 0 6.8 0 0 Z " fill="#173F4C" transform="translate(318,175)"/>
<path d="M0 0 C1.65 0 3.3 0 5 0 C5 6.27 5 12.54 5 19 C0 19 0 19 -1.6875 17.875 C-3.41654062 15.40494197 -4.16764025 12.88124528 -5 10 C-3.35 10 -1.7 10 0 10 C0 6.7 0 3.4 0 0 Z " fill="#052E40" transform="translate(187,175)"/>
<path d="M0 0 C2.31 0.33 4.62 0.66 7 1 C6.34 2.65 5.68 4.3 5 6 C4.34 6 3.68 6 3 6 C3 9.3 3 12.6 3 16 C7.29 16 11.58 16 16 16 C16 17.32 16 18.64 16 20 C10.72 20 5.44 20 0 20 C0 13.4 0 6.8 0 0 Z " fill="#2D4E5A" transform="translate(117,175)"/>
<path d="M0 0 C3.63 0.66 7.26 1.32 11 2 C10.125 7.875 10.125 7.875 9 9 C7.33382885 9.04063832 5.66611905 9.042721 4 9 C4 9.66 4 10.32 4 11 C5.65 11 7.3 11 9 11 C9 11.66 9 12.32 9 13 C6.03 13 3.06 13 0 13 C-1.07841911 8.68632355 -2.06400794 4.12801588 0 0 Z " fill="#FDF4DA" transform="translate(178,211)"/>
<path d="M0 0 C6.57692308 0.57692308 6.57692308 0.57692308 8 2 C8.1875 5.4375 8.1875 5.4375 8 9 C6 11 6 11 3 11.25 C0 11 0 11 -2 9 C-2.25 5.5 -2.25 5.5 -2 2 C-1.34 1.34 -0.68 0.68 0 0 Z " fill="#F5FBFD" transform="translate(335,179)"/>
<path d="M0 0 C2.31 0 4.62 0 7 0 C8.1875 2.625 8.1875 2.625 9 6 C7.625 9.375 7.625 9.375 6 12 C4.35 12 2.7 12 1 12 C1 11.01 1 10.02 1 9 C-0.32 9 -1.64 9 -3 9 C-2.01 6.03 -1.02 3.06 0 0 Z " fill="#0A3648" transform="translate(284,175)"/>
<path d="M0 0 C6.875 0.875 6.875 0.875 8 2 C8.1875 5.4375 8.1875 5.4375 8 9 C6 11 6 11 3 11.25 C0 11 0 11 -2 9 C-2.34490322 4.94738713 -2.30163882 3.45245824 0 0 Z " fill="#EFF8FA" transform="translate(79,179)"/>
<path d="M0 0 C2.625 -0.4375 2.625 -0.4375 6 0 C12.55582816 6.10883988 17.12928586 14.52066227 22 22 C21.67 22.66 21.34 23.32 21 24 C13.86878772 16.1087719 6.76940322 8.20533724 0 0 Z " fill="#E98D3A" transform="translate(346,84)"/>
<path d="M0 0 C1.98 0 3.96 0 6 0 C6.27714844 0.62648437 6.55429688 1.25296875 6.83984375 1.8984375 C7.20207031 2.71570313 7.56429687 3.53296875 7.9375 4.375 C8.29714844 5.18710938 8.65679687 5.99921875 9.02734375 6.8359375 C9.6569903 8.23683785 10.31312642 9.62625284 11 11 C11.99 10.01 12.98 9.02 14 8 C14 8.66 14 9.32 14 10 C14.66 10.33 15.32 10.66 16 11 C14.73160474 11.50615298 13.46016898 12.00469099 12.1875 12.5 C11.47980469 12.7784375 10.77210937 13.056875 10.04296875 13.34375 C8 14 8 14 5 14 C4.16235732 12.04350603 3.33000941 10.08474444 2.5 8.125 C2.0359375 7.03445312 1.571875 5.94390625 1.09375 4.8203125 C0 2 0 2 0 0 Z " fill="#103740" transform="translate(94,175)"/>
<path d="M0 0 C1.62418745 -0.08090971 3.24951745 -0.13914995 4.875 -0.1875 C5.77992188 -0.22230469 6.68484375 -0.25710937 7.6171875 -0.29296875 C8.79667969 -0.14794922 8.79667969 -0.14794922 10 0 C10.66 0.99 11.32 1.98 12 3 C9.29120665 4.35439668 6.99066732 4.06501451 4 4 C4 5.65 4 7.3 4 9 C2.35 9.33 0.7 9.66 -1 10 C-1 9.34 -1 8.68 -1 8 C-2.65 8 -4.3 8 -6 8 C-6 7.01 -6 6.02 -6 5 C-4.35 4.67 -2.7 4.34 -1 4 C-0.67 2.68 -0.34 1.36 0 0 Z " fill="#F7851F" transform="translate(198,48)"/>
<path d="M0 0 C3.0625 0.25 3.0625 0.25 6.0625 2.25 C5.3125 7 5.3125 7 3.0625 9.25 C0.0625 9.5 0.0625 9.5 -2.9375 9.25 C-4.9375 7.25 -4.9375 7.25 -5.1875 4.75 C-4.80794286 0.95442855 -3.73304166 0.31770567 0 0 Z " fill="#DF9957" transform="translate(144.9375,214.75)"/>
<path d="M0 0 C1.32 0.33 2.64 0.66 4 1 C4.33 1.99 4.66 2.98 5 4 C5.598125 3.34 6.19625 2.68 6.8125 2 C9 0 9 0 12 0 C12 2.97 12 5.94 12 9 C11.01 9 10.02 9 9 9 C8.67 8.34 8.34 7.68 8 7 C6.68 7 5.36 7 4 7 C3.67 7.66 3.34 8.32 3 9 C2.01 9 1.02 9 0 9 C0 6.03 0 3.06 0 0 Z " fill="#E2944A" transform="translate(311,215)"/>
<path d="M0 0 C0.75 1.75 0.75 1.75 1 4 C0.13375 4.8353125 0.13375 4.8353125 -0.75 5.6875 C-3.4915774 8.50523232 -4.04116211 10.85834474 -5.14453125 14.55859375 C-6.32237212 17.92001176 -8.06195621 20.82865561 -9.9140625 23.859375 C-11.12085083 26.23822394 -11.55202858 28.38109016 -12 31 C-12.875 33.25 -12.875 33.25 -14 35 C-15.485 35.495 -15.485 35.495 -17 36 C-14.48160845 25.08696994 -8.06054962 8.06054962 0 0 Z " fill="#E89541" transform="translate(152,95)"/>
<path d="M0 0 C2.64 0 5.28 0 8 0 C8.70074844 3.153368 9 5.72724974 9 9 C6.83125748 8.49396008 5.00032373 8.00016187 3 7 C3 7.66 3 8.32 3 9 C2.01 9 1.02 9 0 9 C0 6.03 0 3.06 0 0 Z " fill="#E6A661" transform="translate(404,215)"/>
<path d="M0 0 C0.33 0 0.66 0 1 0 C1 4.95 1 9.9 1 15 C3.97 15 6.94 15 10 15 C10 16.65 10 18.3 10 20 C5.05 20 0.1 20 -5 20 C-3.68 19.67 -2.36 19.34 -1 19 C-0.67 12.73 -0.34 6.46 0 0 Z " fill="#4E6D7D" transform="translate(403,175)"/>
<path d="M0 0 C0.33 0.66 0.66 1.32 1 2 C0.01 3.485 0.01 3.485 -1 5 C-1.24107326 7.28648848 -1.24107326 7.28648848 -1.125 9.6875 C-1.09792969 10.89986328 -1.09792969 10.89986328 -1.0703125 12.13671875 C-1.04710937 12.75160156 -1.02390625 13.36648437 -1 14 C-1.66 14 -2.32 14 -3 14 C-3 12.35 -3 10.7 -3 9 C-3.66 9 -4.32 9 -5 9 C-5.70074844 12.153368 -6 14.72724974 -6 18 C-7.65 18 -9.3 18 -11 18 C-11.33 18.99 -11.66 19.98 -12 21 C-12.66 21 -13.32 21 -14 21 C-12.53261666 16.69303159 -10.32966207 13.53163004 -7.5625 9.9375 C-6.78003906 8.91527344 -5.99757812 7.89304687 -5.19140625 6.83984375 C-4.46824219 5.90269531 -3.74507812 4.96554688 -3 4 C-1.99754491 2.66851152 -0.99640803 1.33601977 0 0 Z " fill="#E8903C" transform="translate(169,71)"/>
<path d="M0 0 C1.32 0 2.64 0 4 0 C4 0.99 4 1.98 4 3 C4.99 3 5.98 3 7 3 C7 2.01 7 1.02 7 0 C7.99 0 8.98 0 10 0 C10 2.97 10 5.94 10 9 C9.01 9 8.02 9 7 9 C7 8.01 7 7.02 7 6 C6.01 6 5.02 6 4 6 C3.67 6.99 3.34 7.98 3 9 C2.01 9 1.02 9 0 9 C0 6.03 0 3.06 0 0 Z " fill="#EA9B5B" transform="translate(243,215)"/>
<path d="M0 0 C0.66 0.33 1.32 0.66 2 1 C1.125 7.875 1.125 7.875 0 9 C-2.35313555 9.07271741 -4.70833668 9.08370868 -7.0625 9.0625 C-8.35285156 9.05347656 -9.64320313 9.04445312 -10.97265625 9.03515625 C-11.97167969 9.02355469 -12.97070312 9.01195312 -14 9 C-13.1875 6.0625 -13.1875 6.0625 -12 3 C-11.01 2.67 -10.02 2.34 -9 2 C-8.34 2.33 -7.68 2.66 -7 3 C-7 3.99 -7 4.98 -7 6 C-5.35 6 -3.7 6 -2 6 C-1.34 4.02 -0.68 2.04 0 0 Z " fill="#08333F" transform="translate(292,181)"/>
<path d="M0 0 C0.66 0 1.32 0 2 0 C2 2.97 2 5.94 2 9 C0.02 9.99 0.02 9.99 -2 11 C-2 9.68 -2 8.36 -2 7 C-4.97 7 -7.94 7 -11 7 C-11 5.68 -11 4.36 -11 3 C-7.37 3 -3.74 3 0 3 C0 2.01 0 1.02 0 0 Z " fill="#D5E0E7" transform="translate(231,176)"/>
<path d="M0 0 C0.99 0 1.98 0 3 0 C4.6875 2 4.6875 2 6 4 C6.66 2.68 7.32 1.36 8 0 C8.99 0 9.98 0 11 0 C11 2.97 11 5.94 11 9 C10.34 9 9.68 9 9 9 C9 7.68 9 6.36 9 5 C8.34 5 7.68 5 7 5 C7 5.99 7 6.98 7 8 C6.01 8 5.02 8 4 8 C3.67 7.34 3.34 6.68 3 6 C2.67 6.99 2.34 7.98 2 9 C1.34 9 0.68 9 0 9 C0 6.03 0 3.06 0 0 Z " fill="#E18E40" transform="translate(119,215)"/>
<path d="M0 0 C4.95 0 9.9 0 15 0 C15 1.32 15 2.64 15 4 C10.38 4.33 5.76 4.66 1 5 C0.67 3.35 0.34 1.7 0 0 Z " fill="#062F3F" transform="translate(215,175)"/>
<path d="M0 0 C1.32 0 2.64 0 4 0 C4.99 2.97 5.98 5.94 7 9 C3.37 9 -0.26 9 -4 9 C-2.94124926 5.59687262 -1.99097846 2.98646769 0 0 Z " fill="#E39B4E" transform="translate(336,215)"/>
<path d="M0 0 C3.97915085 -0.02934144 7.95827337 -0.04691265 11.9375 -0.0625 C13.05447266 -0.07087891 14.17144531 -0.07925781 15.32226562 -0.08789062 C21.63992667 -0.10641749 27.73763227 0.15660583 34 1 C34 1.66 34 2.32 34 3 C34.9075 2.95875 35.815 2.9175 36.75 2.875 C39.8782046 2.99531556 41.38614006 3.3914708 44 5 C44 5.66 44 6.32 44 7 C42.91460937 6.72285156 41.82921875 6.44570313 40.7109375 6.16015625 C39.26565719 5.7941437 37.82034288 5.4282654 36.375 5.0625 C35.66214844 4.88009766 34.94929688 4.69769531 34.21484375 4.50976562 C26.31698201 2.51718583 18.75696831 1.7575323 10.625 1.4375 C9.60277344 1.39431641 8.58054688 1.35113281 7.52734375 1.30664062 C5.01834712 1.20112208 2.50926057 1.09900787 0 1 C0 0.67 0 0.34 0 0 Z " fill="#E89A50" transform="translate(244,40)"/>
<path d="M0 0 C2.64 0 5.28 0 8 0 C8 1.32 8 2.64 8 4 C6.68 4.33 5.36 4.66 4 5 C4 5.66 4 6.32 4 7 C5.65 7 7.3 7 9 7 C9 7.66 9 8.32 9 9 C6.03 9 3.06 9 0 9 C0 6.03 0 3.06 0 0 Z " fill="#E49C5A" transform="translate(386,215)"/>
<path d="M0 0 C1.875 0.0625 1.875 0.0625 4 1 C7 6.03571429 7 6.03571429 7 9 C3.37 9 -0.26 9 -4 9 C-1.125 1.125 -1.125 1.125 0 0 Z " fill="#E3974D" transform="translate(266,215)"/>
<path d="M0 0 C7.92 0.33 15.84 0.66 24 1 C24 1.33 24 1.66 24 2 C18.39 2 12.78 2 7 2 C5.97134997 6.11460014 5.66435325 10.04019864 5.4375 14.25 C5.39431641 14.99507812 5.35113281 15.74015625 5.30664062 16.5078125 C5.20103275 18.338349 5.10005799 20.16915176 5 22 C3.02 22 1.04 22 -1 22 C-1 21.67 -1 21.34 -1 21 C0.65 21 2.3 21 4 21 C4 14.73 4 8.46 4 2 C2.35 2 0.7 2 -1 2 C-0.67 1.34 -0.34 0.68 0 0 Z " fill="#B2C3CC" transform="translate(188,173)"/>
<path d="M0 0 C10.69548536 0.6599342 26.15534692 3.15534692 34 11 C30.46639483 10.38902014 27.36751156 9.44611463 24.0625 8.0625 C23.1859375 7.70671875 22.309375 7.3509375 21.40625 6.984375 C20.6121875 6.65953125 19.818125 6.3346875 19 6 C14.13766401 4.03437481 9.58263775 3.59364652 4.390625 3.24609375 C2 3 2 3 0 2 C0 1.34 0 0.68 0 0 Z " fill="#FEECCF" transform="translate(266,42)"/>
<path d="M0 0 C0.66 0 1.32 0 2 0 C2 3.3 2 6.6 2 10 C0.35 10 -1.3 10 -3 10 C-5.3125 7 -5.3125 7 -7 4 C-6.030625 3.525625 -5.06125 3.05125 -4.0625 2.5625 C-1.19522563 1.29806053 -1.19522563 1.29806053 0 0 Z " fill="#0E374C" transform="translate(272,185)"/>
<path d="M0 0 C0.99 0.33 1.98 0.66 3 1 C1.41037341 5.03520597 -0.28232318 9.01811282 -2 13 C-4.475 12.01 -4.475 12.01 -7 11 C-7 7 -7 7 -5.1875 4.9375 C-4.465625 4.298125 -3.74375 3.65875 -3 3 C-2.4225 2.4225 -1.845 1.845 -1.25 1.25 C-0.8375 0.8375 -0.425 0.425 0 0 Z " fill="#F1F6F8" transform="translate(173,97)"/>
<path d="M0 0 C0.90492188 0.10828125 0.90492188 0.10828125 1.828125 0.21875 C3.02695313 0.35796875 3.02695313 0.35796875 4.25 0.5 C5.03890625 0.5928125 5.8278125 0.685625 6.640625 0.78125 C9.26890397 1.06154619 9.26890397 1.06154619 13 1 C13 3 13 3 11.78125 4.6015625 C9.54544377 6.35686651 8.31536388 6.40315364 5.5 6.375 C4.7265625 6.38273438 3.953125 6.39046875 3.15625 6.3984375 C0.54840272 5.91655268 -0.33871866 5.01270624 -2 3 C-1.34 2.01 -0.68 1.02 0 0 Z " fill="#062F3F" transform="translate(137,189)"/>
<path d="M0 0 C0.99 0 1.98 0 3 0 C3.33 5.94 3.66 11.88 4 18 C2.68 18 1.36 18 0 18 C0 12.06 0 6.12 0 0 Z " fill="#022B42" transform="translate(165,176)"/>
<path d="M0 0 C0.99 0.33 1.98 0.66 3 1 C2.67 2.65 2.34 4.3 2 6 C0.041036 5.69147815 -1.91715713 5.3780582 -3.875 5.0625 C-4.96554688 4.88847656 -6.05609375 4.71445313 -7.1796875 4.53515625 C-10 4 -10 4 -12 3 C-7.89042374 0.01121727 -5.03415457 -0.37290034 0 0 Z " fill="#214351" transform="translate(148,174)"/>
<path d="M0 0 C2.64 0 5.28 0 8 0 C7.67 1.65 7.34 3.3 7 5 C5.68 5 4.36 5 3 5 C3 5.66 3 6.32 3 7 C4.65 7 6.3 7 8 7 C8 7.66 8 8.32 8 9 C5.36 9 2.72 9 0 9 C0 6.03 0 3.06 0 0 Z " fill="#D89656" transform="translate(179,215)"/>
<path d="M0 0 C1.2065625 0.0309375 1.2065625 0.0309375 2.4375 0.0625 C2.4375 1.0525 2.4375 2.0425 2.4375 3.0625 C1.4475 3.3925 0.4575 3.7225 -0.5625 4.0625 C0.7575 4.3925 2.0775 4.7225 3.4375 5.0625 C3.1075 6.7125 2.7775 8.3625 2.4375 10.0625 C0.1275 10.0625 -2.1825 10.0625 -4.5625 10.0625 C-4.5625 9.4025 -4.5625 8.7425 -4.5625 8.0625 C-3.5725 7.7325 -2.5825 7.4025 -1.5625 7.0625 C-2.5525 6.4025 -3.5425 5.7425 -4.5625 5.0625 C-3.43829114 0.08386076 -3.43829114 0.08386076 0 0 Z " fill="#DF9B59" transform="translate(200.5625,213.9375)"/>
<path d="M0 0 C2.375 0.25 2.375 0.25 5 1 C6.125 3 6.125 3 7 5 C7.99 5.33 8.98 5.66 10 6 C9.34 7.32 8.68 8.64 8 10 C3.15544041 8.50259067 3.15544041 8.50259067 1 7 C0.0625 3.3125 0.0625 3.3125 0 0 Z " fill="#EF8424" transform="translate(314,53)"/>
<path d="M0 0 C0.33 0 0.66 0 1 0 C0.88366642 1.52152079 0.7564113 3.04220723 0.625 4.5625 C0.55539063 5.40941406 0.48578125 6.25632813 0.4140625 7.12890625 C0 10 0 10 -2 17 C-8.6 17 -15.2 17 -22 17 C-22 15.35 -22 13.7 -22 12 C-21.67 13.32 -21.34 14.64 -21 16 C-15.06 16 -9.12 16 -3 16 C-3 12.04 -3 8.08 -3 4 C-2.01 4 -1.02 4 0 4 C0 2.68 0 1.36 0 0 Z " fill="#E39046" transform="translate(147,148)"/>
<path d="M0 0 C1.670625 0.8971875 1.670625 0.8971875 3.375 1.8125 C4.00148438 2.14894531 4.62796875 2.48539063 5.2734375 2.83203125 C7 4 7 4 9 7 C7.35 7.33 5.7 7.66 4 8 C4.99 8.66 5.98 9.32 7 10 C6.67 10.99 6.34 11.98 6 13 C2.7 10.69 -0.6 8.38 -4 6 C-3.34 5.67 -2.68 5.34 -2 5 C-1.01 5.33 -0.02 5.66 1 6 C1.66 5.01 2.32 4.02 3 3 C1.68 2.67 0.36 2.34 -1 2 C-0.67 1.34 -0.34 0.68 0 0 Z " fill="#E89344" transform="translate(321,56)"/>
<path d="M0 0 C2.475 0.99 2.475 0.99 5 2 C5 4.64 5 7.28 5 10 C3.02 10.99 3.02 10.99 1 12 C0.63762737 10.37681021 0.28534843 8.7513642 -0.0625 7.125 C-0.25972656 6.22007812 -0.45695312 5.31515625 -0.66015625 4.3828125 C-1 2 -1 2 0 0 Z " fill="#083341" transform="translate(88,179)"/>
<path d="M0 0 C1.32 0 2.64 0 4 0 C4.66 1.32 5.32 2.64 6 4 C6.66 2.68 7.32 1.36 8 0 C8.99 0.33 9.98 0.66 11 1 C9.68 3.64 8.36 6.28 7 9 C5.68 8.67 4.36 8.34 3 8 C1.953125 6.15234375 1.953125 6.15234375 1.25 3.9375 C1.00765625 3.20402344 0.7653125 2.47054687 0.515625 1.71484375 C0.34546875 1.14894531 0.1753125 0.58304688 0 0 Z " fill="#E1923D" transform="translate(159,215)"/>
<path d="M0 0 C2.125 0.9375 2.125 0.9375 4 2 C3.67 2.99 3.34 3.98 3 5 C3.66 5 4.32 5 5 5 C5.33 6.32 5.66 7.64 6 9 C3.125 9.125 3.125 9.125 0 9 C-2 7 -2 7 -2.125 3.875 C-2.08375 2.92625 -2.0425 1.9775 -2 1 C-1.34 0.67 -0.68 0.34 0 0 Z " fill="#0C313C" transform="translate(138,177)"/>
<path d="M0 0 C0.33 0 0.66 0 1 0 C1 3.63 1 7.26 1 11 C2.32 11 3.64 11 5 11 C5.33 10.34 5.66 9.68 6 9 C5.33501617 13.38889325 3.81242323 16.9811485 2 21 C1.34 20.67 0.68 20.34 0 20 C0 13.4 0 6.8 0 0 Z " fill="#D3E9ED" transform="translate(371,175)"/>
<path d="M0 0 C2 3 2 3 2 5 C2.66 5 3.32 5 4 5 C4.66 7.31 5.32 9.62 6 12 C4.35 12 2.7 12 1 12 C1 11.01 1 10.02 1 9 C-0.32 9 -1.64 9 -3 9 C-2.01 6.03 -1.02 3.06 0 0 Z " fill="#173E4E" transform="translate(381,175)"/>
<path d="M0 0 C7.26 0 14.52 0 22 0 C22 0.33 22 0.66 22 1 C16.72 1 11.44 1 6 1 C6 2.98 6 4.96 6 7 C5.01 8.485 5.01 8.485 4 10 C3.01 9.67 2.02 9.34 1 9 C1.99 6.69 2.98 4.38 4 2 C2.68 1.34 1.36 0.68 0 0 Z " fill="#C3D9E0" transform="translate(111,174)"/>
<path d="M0 0 C1.65 0 3.3 0 5 0 C5 0.99 5 1.98 5 3 C5.99 3.33 6.98 3.66 8 4 C8.99 4.66 9.98 5.32 11 6 C7.04 6 3.08 6 -1 6 C-0.67 4.02 -0.34 2.04 0 0 Z " fill="#012D3D" transform="translate(377,184)"/>
<path d="M0 0 C4.29 0 8.58 0 13 0 C13 1.32 13 2.64 13 4 C9.37 4 5.74 4 2 4 C2.33 3.34 2.66 2.68 3 2 C2.01 1.34 1.02 0.68 0 0 Z " fill="#0B2C3C" transform="translate(120,175)"/>
<path d="M0 0 C1.1673418 3.5020254 0.79056598 4.29616038 -0.43359375 7.66796875 C-0.75263672 8.56064453 -1.07167969 9.45332031 -1.40039062 10.37304688 C-1.74263672 11.30181641 -2.08488281 12.23058594 -2.4375 13.1875 C-2.77587891 14.12787109 -3.11425781 15.06824219 -3.46289062 16.03710938 C-4.30048809 18.36114742 -5.14645283 20.68178235 -6 23 C-7.31886422 19.04340734 -7.26518132 16.17660573 -7 12 C-6.01 11.34 -5.02 10.68 -4 10 C-2.77155177 7.5939111 -2.77155177 7.5939111 -1.8125 4.875 C-1.46832031 3.96492188 -1.12414062 3.05484375 -0.76953125 2.1171875 C-0.51558594 1.41851562 -0.26164063 0.71984375 0 0 Z " fill="#E89447" transform="translate(159,113)"/>
<path d="M0 0 C1.625 1.625 1.625 1.625 3 4 C2.3007918 6.91336749 1.33508269 9.32983461 0 12 C-1.65 12 -3.3 12 -5 12 C-4.39816251 9.97954558 -3.72693904 7.97888961 -3 6 C-2.34 5.67 -1.68 5.34 -1 5 C-0.34444881 2.47266765 -0.34444881 2.47266765 0 0 Z " fill="#193C48" transform="translate(290,175)"/>
<path d="M0 0 C0.33 0 0.66 0 1 0 C1 2.64 1 5.28 1 8 C0.34 8 -0.32 8 -1 8 C-1 9.65 -1 11.3 -1 13 C4.28 13 9.56 13 15 13 C15.33 12.34 15.66 11.68 16 11 C16 11.99 16 12.98 16 14 C10.06 14 4.12 14 -2 14 C-2 5 -2 5 0 0 Z " fill="#F2832A" transform="translate(128,150)"/>
<path d="M0 0 C2.97 0 5.94 0 9 0 C9 0.66 9 1.32 9 2 C8.01 2 7.02 2 6 2 C6 4.31 6 6.62 6 9 C5.01 9 4.02 9 3 9 C3 6.69 3 4.38 3 2 C2.01 2 1.02 2 0 2 C0 1.34 0 0.68 0 0 Z " fill="#DC924D" transform="translate(281,215)"/>
<path d="M0 0 C2.97 0 5.94 0 9 0 C9 0.66 9 1.32 9 2 C8.01 2 7.02 2 6 2 C6 4.31 6 6.62 6 9 C5.01 9 4.02 9 3 9 C3 6.69 3 4.38 3 2 C2.01 2 1.02 2 0 2 C0 1.34 0 0.68 0 0 Z " fill="#DB924D" transform="translate(351,215)"/>
<path d="M0 0 C0.89203125 0.10183594 1.7840625 0.20367187 2.703125 0.30859375 C3.37859375 0.39238281 4.0540625 0.47617188 4.75 0.5625 C4.75 0.8925 4.75 1.2225 4.75 1.5625 C1.78 1.5625 -1.19 1.5625 -4.25 1.5625 C-4.58 2.8825 -4.91 4.2025 -5.25 5.5625 C-7.23 5.5625 -9.21 5.5625 -11.25 5.5625 C-10.5 3.125 -10.5 3.125 -9.25 0.5625 C-6.08633512 -0.68036835 -3.32886511 -0.39420771 0 0 Z " fill="#20464F" transform="translate(287.25,189.4375)"/>
<path d="M0 0 C2.475 0.99 2.475 0.99 5 2 C4.67 5.3 4.34 8.6 4 12 C3.67 12 3.34 12 3 12 C3 9.03 3 6.06 3 3 C2.01 3 1.02 3 0 3 C-0.66 4.65 -1.32 6.3 -2 8 C-3.5 6.625 -3.5 6.625 -5 5 C-5 4.34 -5 3.68 -5 3 C-5.99 2.67 -6.98 2.34 -8 2 C-6.68 1.67 -5.36 1.34 -4 1 C-3.34 1.99 -2.68 2.98 -2 4 C-1.34 2.68 -0.68 1.36 0 0 Z " fill="#FDE7C7" transform="translate(127,212)"/>
<path d="M0 0 C4.29 0.33 8.58 0.66 13 1 C13 1.33 13 1.66 13 2 C10.36 2 7.72 2 5 2 C4.67 3.32 4.34 4.64 4 6 C2.02 6 0.04 6 -2 6 C-1.34 4.02 -0.68 2.04 0 0 Z " fill="#2F495C" transform="translate(375,189)"/>
<path d="M0 0 C0.53625 0.391875 1.0725 0.78375 1.625 1.1875 C1.295 2.1775 0.965 3.1675 0.625 4.1875 C-6.125 5.3125 -6.125 5.3125 -8.375 4.1875 C-8.375 3.5275 -8.375 2.8675 -8.375 2.1875 C-2.95961538 -1.0125 -2.95961538 -1.0125 0 0 Z " fill="#073040" transform="translate(343.375,189.8125)"/>
<path d="M0 0 C4.23830976 2.82553984 3.97715348 5.12180888 5 10 C2.525 11.485 2.525 11.485 0 13 C0 8.71 0 4.42 0 0 Z " fill="#EAF7F9" transform="translate(324,181)"/>
<path d="M0 0 C3.96 0 7.92 0 12 0 C11.67 0.99 11.34 1.98 11 3 C11.66 3.33 12.32 3.66 13 4 C11.58506449 4.10884119 10.16767057 4.18597617 8.75 4.25 C7.96109375 4.29640625 7.1721875 4.3428125 6.359375 4.390625 C4 4 4 4 0 0 Z " fill="#062A3D" transform="translate(234,175)"/>
<path d="M0 0 C2.31 0.33 4.62 0.66 7 1 C7 1.33 7 1.66 7 2 C5.35 2 3.7 2 2 2 C2.99 4.97 3.98 7.94 5 11 C4.01 10.67 3.02 10.34 2 10 C1.67 10.99 1.34 11.98 1 13 C0.690625 11.88625 0.38125 10.7725 0.0625 9.625 C-0.82326483 6.2054845 -0.82326483 6.2054845 -2 4 C-1.34 3.34 -0.68 2.68 0 2 C0 1.34 0 0.68 0 0 Z " fill="#CEE0E3" transform="translate(92,173)"/>
<path d="M0 0 C0.66 0.33 1.32 0.66 2 1 C1.34 2.65 0.68 4.3 0 6 C-2.64 6.33 -5.28 6.66 -8 7 C-8.33 7.99 -8.66 8.98 -9 10 C-10.32 9.67 -11.64 9.34 -13 9 C-12.39671875 8.60167969 -11.7934375 8.20335937 -11.171875 7.79296875 C-10.37265625 7.26316406 -9.5734375 6.73335937 -8.75 6.1875 C-7.96109375 5.66542969 -7.1721875 5.14335938 -6.359375 4.60546875 C-4.18907519 3.12865878 -2.08586232 1.59310127 0 0 Z " fill="#FEF0D6" transform="translate(213,49)"/>
<path d="M0 0 C2.70556641 -0.34057617 2.70556641 -0.34057617 6.1015625 -0.29296875 C7.31328125 -0.28330078 8.525 -0.27363281 9.7734375 -0.26367188 C11.04445312 -0.23853516 12.31546875 -0.21339844 13.625 -0.1875 C14.90375 -0.17396484 16.1825 -0.16042969 17.5 -0.14648438 C20.66708282 -0.11103196 23.83333541 -0.06161441 27 0 C27 0.33 27 0.66 27 1 C26.16190796 1.03758423 26.16190796 1.03758423 25.30688477 1.07592773 C22.72527572 1.19343105 20.14389764 1.3154438 17.5625 1.4375 C16.68400391 1.47681641 15.80550781 1.51613281 14.90039062 1.55664062 C9.23052738 1.82862668 3.63551047 2.31777645 -2 3 C-1.34 2.01 -0.68 1.02 0 0 Z " fill="#E68A34" transform="translate(237,39)"/>
<path d="M0 0 C2.64 0 5.28 0 8 0 C8 0.66 8 1.32 8 2 C7.01 2 6.02 2 5 2 C5 4.31 5 6.62 5 9 C4.01 9 3.02 9 2 9 C2 6.69 2 4.38 2 2 C1.34 2 0.68 2 0 2 C0 1.34 0 0.68 0 0 Z " fill="#E09652" transform="translate(226,215)"/>
<path d="M0 0 C1.231394 2.46278801 1.07159196 4.2795055 1 7 C0.01 7 -0.98 7 -2 7 C-2.2475 7.639375 -2.495 8.27875 -2.75 8.9375 C-4 11 -4 11 -6.125 11.75 C-7.053125 11.87375 -7.053125 11.87375 -8 12 C-6.49087042 7.01987239 -3.44338151 3.75740058 0 0 Z " fill="#FEF0D7" transform="translate(183,75)"/>
<path d="M0 0 C0.66 0 1.32 0 2 0 C2.33 1.65 2.66 3.3 3 5 C4.98491642 4.73323796 4.98491642 4.73323796 7 4 C7.33 3.01 7.66 2.02 8 1 C8.66 1 9.32 1 10 1 C9.125 5.875 9.125 5.875 8 7 C5.0625 7.1875 5.0625 7.1875 2 7 C0 5 0 5 -0.125 2.375 C-0.08375 1.59125 -0.0425 0.8075 0 0 Z " fill="#E48E45" transform="translate(140,217)"/>
<path d="M0 0 C0.99 0.33 1.98 0.66 3 1 C2.95875 1.94875 2.9175 2.8975 2.875 3.875 C2.65026182 7.10244856 2.65026182 7.10244856 5 9 C1.32579134 8.69381595 0.21864487 8.24228216 -2.3125 5.4375 C-2.869375 4.633125 -3.42625 3.82875 -4 3 C-2.68 2.67 -1.36 2.34 0 2 C0 1.34 0 0.68 0 0 Z " fill="#123650" transform="translate(366,186)"/>
<path d="M0 0 C1.65 1.65 3.3 3.3 5 5 C4.67 5.99 4.34 6.98 4 8 C3.34 8 2.68 8 2 8 C1.67 8.66 1.34 9.32 1 10 C-0.32 8.35 -1.64 6.7 -3 5 C-2.505 4.54625 -2.01 4.0925 -1.5 3.625 C0.22609337 2.12364481 0.22609337 2.12364481 0 0 Z " fill="#173E50" transform="translate(360,179)"/>
<path d="M0 0 C2.912575 0.08566397 4.56798024 0.57910955 6.66796875 2.625 C8.16091772 4.38391375 9.60436262 6.16313019 11 8 C8.70703125 8.25 8.70703125 8.25 6 8 C4.19921875 6.25 4.19921875 6.25 2.6875 4 C1.91986328 2.88625 1.91986328 2.88625 1.13671875 1.75 C0.57404297 0.88375 0.57404297 0.88375 0 0 Z " fill="#EB8525" transform="translate(339,76)"/>
<path d="M0 0 C5.11627126 -0.30095713 7.77164826 0.14300558 12 3 C14.19130534 3.69579454 14.19130534 3.69579454 16 4 C16 4.66 16 5.32 16 6 C17.32 6.33 18.64 6.66 20 7 C19.67 7.66 19.34 8.32 19 9 C16.58301449 7.87568087 14.1664028 6.75057025 11.75 5.625 C11.06808594 5.30789062 10.38617188 4.99078125 9.68359375 4.6640625 C6.43425287 3.14980656 3.19361516 1.62973145 0 0 Z " fill="#E69345" transform="translate(288,47)"/>
<path d="M0 0 C1.65 0 3.3 0 5 0 C5.38218767 1.65614657 5.71395102 3.32457024 6 5 C5 6 5 6 2.4375 6.0625 C1.2309375 6.0315625 1.2309375 6.0315625 0 6 C0 4.02 0 2.04 0 0 Z " fill="#E7F5F8" transform="translate(240,179)"/>
<path d="M0 0 C0.79921875 0.11085937 1.5984375 0.22171875 2.421875 0.3359375 C3.32679687 0.47902344 3.32679687 0.47902344 4.25 0.625 C3.92 1.615 3.59 2.605 3.25 3.625 C2.38375 3.41875 1.5175 3.2125 0.625 3 C-3.11428602 2.58452378 -5.29942141 3.22833724 -8.75 4.625 C-8.75 3.635 -8.75 2.645 -8.75 1.625 C-5.5750906 -0.2828584 -3.64414789 -0.5359041 0 0 Z " fill="#1C3E52" transform="translate(83.75,174.375)"/>
<path d="M0 0 C0.33 0 0.66 0 1 0 C1 1.98 1 3.96 1 6 C0.01 6.495 0.01 6.495 -1 7 C-1.78344256 8.99291777 -2.48016365 11.02051823 -3.125 13.0625 C-3.47820312 14.16722656 -3.83140625 15.27195312 -4.1953125 16.41015625 C-4.46085938 17.26480469 -4.72640625 18.11945313 -5 19 C-5.66 19 -6.32 19 -7 19 C-5.17778624 12.38757278 -2.94776396 6.19479329 0 0 Z " fill="#FEEECE" transform="translate(162,110)"/>
<path d="M0 0 C1 2 1 2 1 5 C0.67 5.99 0.34 6.98 0 8 C-1.65 8 -3.3 8 -5 8 C-5.33 8.99 -5.66 9.98 -6 11 C-6.66 11 -7.32 11 -8 11 C-6.87548273 8.0280615 -5.77706209 5.66559313 -4 3 C-3.01 3 -2.02 3 -1 3 C-0.67 2.01 -0.34 1.02 0 0 Z " fill="#F08D33" transform="translate(163,81)"/>
<path d="M0 0 C0.66 0 1.32 0 2 0 C3.32 2.64 4.64 5.28 6 8 C2 8 2 8 0 7 C-0.66 7.99 -1.32 8.98 -2 10 C-1.54177532 6.53058454 -1.10868317 3.32604951 0 0 Z " fill="#DEE9EC" transform="translate(85,108)"/>
<path d="M0 0 C0.33 0 0.66 0 1 0 C1 2.31 1 4.62 1 7 C8.04207705 6.2812193 8.04207705 6.2812193 15 5 C15 5.99 15 6.98 15 8 C10.05 8 5.1 8 0 8 C0 5.36 0 2.72 0 0 Z " fill="#0D2D3F" transform="translate(215,186)"/>
<path d="M0 0 C0.66 0 1.32 0 2 0 C2 0.66 2 1.32 2 2 C2.66 2 3.32 2 4 2 C4 5.3 4 8.6 4 12 C2.68 11.34 1.36 10.68 0 10 C0 6.7 0 3.4 0 0 Z " fill="#EEF4FA" transform="translate(348,180)"/>
<path d="M0 0 C0.99 0.33 1.98 0.66 3 1 C2.67 1.99 2.34 2.98 2 4 C2.61875 4.103125 3.2375 4.20625 3.875 4.3125 C6 5 6 5 8 8 C5.83125748 7.49396008 4.00032373 7.00016187 2 6 C2 6.66 2 7.32 2 8 C1.34 8 0.68 8 0 8 C0 5.36 0 2.72 0 0 Z " fill="#DC8B3B" transform="translate(405,216)"/>
<path d="M0 0 C0.99 0 1.98 0 3 0 C3 2.97 3 5.94 3 9 C2.01 9 1.02 9 0 9 C-1.125 3.375 -1.125 3.375 0 0 Z " fill="#E0934D" transform="translate(250,215)"/>
<path d="M0 0 C2.64 0 5.28 0 8 0 C8 0.66 8 1.32 8 2 C7.01 2 6.02 2 5 2 C5 4.31 5 6.62 5 9 C4.34 9 3.68 9 3 9 C3 6.69 3 4.38 3 2 C2.01 2 1.02 2 0 2 C0 1.34 0 0.68 0 0 Z " fill="#DD8F4B" transform="translate(369,215)"/>
<path d="M0 0 C0.99 0.33 1.98 0.66 3 1 C3 4.63 3 8.26 3 12 C0.9375 10.5 0.9375 10.5 -1 8 C-1.05928384 5.17593353 -0.55954815 2.79774073 0 0 Z " fill="#DDF3F8" transform="translate(184,173)"/>
<path d="M0 0 C0.33 0 0.66 0 1 0 C1.875 3.1875 1.875 3.1875 2 7 C0.21974097 9.21299892 -1.60637719 10.38796831 -4 12 C-3.52494322 10.18641846 -3.04483958 8.37415821 -2.5625 6.5625 C-2.29566406 5.55316406 -2.02882812 4.54382813 -1.75390625 3.50390625 C-1 1 -1 1 0 0 Z " fill="#EB9041" transform="translate(134,133)"/>
<path d="M0 0 C2 2 2 2 2 8 C-1.96 8 -5.92 8 -10 8 C-5.8204355 5.21362367 -3.85331323 6.20437488 1 7 C0.34 5.02 -0.32 3.04 -1 1 C-0.67 0.67 -0.34 0.34 0 0 Z " fill="#FEF4DA" transform="translate(342,217)"/>
<path d="M0 0 C2.64 0 5.28 0 8 0 C8.33 1.65 8.66 3.3 9 5 C4.545 4.01 4.545 4.01 0 3 C0 2.01 0 1.02 0 0 Z " fill="#E0EEF2" transform="translate(141,179)"/>
<path d="M0 0 C0.99 0.33 1.98 0.66 3 1 C4 5.75 4 5.75 4 8 C4.31802943 9.66965451 4.64984951 11.33678518 5 13 C4.34 13 3.68 13 3 13 C2.49242138 11.58603098 1.99425075 10.16868271 1.5 8.75 C1.08234375 7.56664062 1.08234375 7.56664062 0.65625 6.359375 C0 4 0 4 0 0 Z " fill="#E0F0F3" transform="translate(203,128)"/>
<path d="M0 0 C3.2626876 3.08632611 6.02235218 5.93483504 8 10 C7.67 10.66 7.34 11.32 7 12 C4.36 9.03 1.72 6.06 -1 3 C-0.67 2.01 -0.34 1.02 0 0 Z " fill="#D99750" transform="translate(360,96)"/>
<path d="M0 0 C0.99 0.66 1.98 1.32 3 2 C2.67 2.99 2.34 3.98 2 5 C2.87914688 7.6569191 2.87914688 7.6569191 4 10 C2.02 10 0.04 10 -2 10 C-1.34 6.7 -0.68 3.4 0 0 Z " fill="#34535F" transform="translate(248,185)"/>
<path d="M0 0 C4.8 2.46153846 4.8 2.46153846 5.8125 5.1875 C5.874375 5.785625 5.93625 6.38375 6 7 C4.02 7 2.04 7 0 7 C0 4.69 0 2.38 0 0 Z " fill="#1F454A" transform="translate(390,188)"/>
<path d="M0 0 C2.97 0.495 2.97 0.495 6 1 C6 2.32 6 3.64 6 5 C3.36 5 0.72 5 -2 5 C-1.34 4.34 -0.68 3.68 0 3 C0 2.01 0 1.02 0 0 Z " fill="#1E414F" transform="translate(143,182)"/>
<path d="M0 0 C1.32 0 2.64 0 4 0 C4 2.31 4 4.62 4 7 C2.68 6.67 1.36 6.34 0 6 C0 4.02 0 2.04 0 0 Z " fill="#012C45" transform="translate(399,177)"/>
<path d="M0 0 C2.97 0.495 2.97 0.495 6 1 C5.34 2.65 4.68 4.3 4 6 C3.34 6 2.68 6 2 6 C1.67 6.66 1.34 7.32 1 8 C-0.35439668 5.29120665 -0.06501451 2.99066732 0 0 Z " fill="#093147" transform="translate(118,175)"/>
<path d="M0 0 C1.32 0.33 2.64 0.66 4 1 C4 4.3 4 7.6 4 11 C3.34 10.67 2.68 10.34 2 10 C2.33 8.68 2.66 7.36 3 6 C1.35 5.67 -0.3 5.34 -2 5 C-0.68 4.67 0.64 4.34 2 4 C2 3.01 2 2.02 2 1 C1.34 0.67 0.68 0.34 0 0 Z " fill="#FBE7C4" transform="translate(201,213)"/>
<path d="M0 0 C0.99 0.33 1.98 0.66 3 1 C4.1875 4.0625 4.1875 4.0625 5 7 C3.35 7.66 1.7 8.32 0 9 C0 6.03 0 3.06 0 0 Z " fill="#ECF8FB" transform="translate(68,184)"/>
<path d="M0 0 C2.64 0 5.28 0 8 0 C8 0.99 8 1.98 8 3 C5.03 3 2.06 3 -1 3 C-0.67 2.01 -0.34 1.02 0 0 Z " fill="#042E41" transform="translate(123,183)"/>
<path d="M0 0 C0.99 0.66 1.98 1.32 3 2 C2.34 2 1.68 2 1 2 C1 3.65 1 5.3 1 7 C1.66 7.33 2.32 7.66 3 8 C2.01 8.495 2.01 8.495 1 9 C-1.03144641 8.06553465 -3.03533587 7.06775224 -5 6 C-4.360625 5.38125 -3.72125 4.7625 -3.0625 4.125 C-0.96116416 2.17402388 -0.96116416 2.17402388 0 0 Z " fill="#E88D3C" transform="translate(313,51)"/>
<path d="M0 0 C1.62580966 0.11398665 3.25067157 0.24155659 4.875 0.375 C5.77992188 0.44460937 6.68484375 0.51421875 7.6171875 0.5859375 C10 1 10 1 12 3 C10.37509046 3.02698189 8.75005367 3.04638757 7.125 3.0625 C5.76761719 3.07990234 5.76761719 3.07990234 4.3828125 3.09765625 C2 3 2 3 0 2 C0 1.34 0 0.68 0 0 Z " fill="#FCF6DA" transform="translate(266,42)"/>
<path d="M0 0 C0.33 0 0.66 0 1 0 C1.33 1.98 1.66 3.96 2 6 C2.66 6 3.32 6 4 6 C3.6875 7.9375 3.6875 7.9375 3 10 C2.01 10.33 1.02 10.66 0 11 C-1.76062164 7.67438135 -2.10784228 6.40826005 -1.125 2.6875 C-0.568125 1.3571875 -0.568125 1.3571875 0 0 Z " fill="#295056" transform="translate(87,183)"/>
<path d="M0 0 C0.33 0 0.66 0 1 0 C1 2.97 1 5.94 1 9 C0.67 8.34 0.34 7.68 0 7 C-1.32 7.33 -2.64 7.66 -4 8 C-2.87548273 5.0280615 -1.77706209 2.66559313 0 0 Z " fill="#CFE6EC" transform="translate(62,185)"/>
<path d="M0 0 C1.98 0.99 1.98 0.99 4 2 C4 2.99 4 3.98 4 5 C4.66 5 5.32 5 6 5 C6.66 7.31 7.32 9.62 8 12 C7.34 12 6.68 12 6 12 C4.02 8.04 2.04 4.08 0 0 Z " fill="#E0F1F5" transform="translate(114,106)"/>
<path d="M0 0 C1.32 0.33 2.64 0.66 4 1 C0.7 3.64 -2.6 6.28 -6 9 C-6.33 7.68 -6.66 6.36 -7 5 C-5.35 4.67 -3.7 4.34 -2 4 C-2 3.34 -2 2.68 -2 2 C-1.34 2 -0.68 2 0 2 C0 1.34 0 0.68 0 0 Z " fill="#FEF2DB" transform="translate(183,55)"/>
<path d="M0 0 C2.00401011 0.30830925 4.00291344 0.64963394 6 1 C6.78117187 1.1340625 7.56234375 1.268125 8.3671875 1.40625 C9.57761719 1.63828125 9.57761719 1.63828125 10.8125 1.875 C11.58207031 2.01679687 12.35164063 2.15859375 13.14453125 2.3046875 C13.75683594 2.53414062 14.36914062 2.76359375 15 3 C15.33 3.99 15.66 4.98 16 6 C14.26982492 5.54548816 12.54090123 5.08621143 10.8125 4.625 C9.84957031 4.36976562 8.88664062 4.11453125 7.89453125 3.8515625 C5.17789793 3.05233704 2.60862825 2.0968638 0 1 C0 0.67 0 0.34 0 0 Z " fill="#FBE3C3" transform="translate(280,36)"/>
<path d="M0 0 C1.32 0 2.64 0 4 0 C4 0.66 4 1.32 4 2 C3.34 2 2.68 2 2 2 C2.02320312 2.62648437 2.04640625 3.25296875 2.0703125 3.8984375 C2.08835937 4.71570313 2.10640625 5.53296875 2.125 6.375 C2.14820312 7.18710938 2.17140625 7.99921875 2.1953125 8.8359375 C2 11 2 11 0 13 C0 8.71 0 4.42 0 0 Z " fill="#042B32" transform="translate(63,175)"/>
<path d="M0 0 C2.64 0 5.28 0 8 0 C8 0.99 8 1.98 8 3 C5.36 3 2.72 3 0 3 C0 2.01 0 1.02 0 0 Z " fill="#F0FCFF" transform="translate(221,179)"/>
<path d="M0 0 C2.64 0 5.28 0 8 0 C8 0.99 8 1.98 8 3 C5.36 3 2.72 3 0 3 C0 2.01 0 1.02 0 0 Z " fill="#F8FEFF" transform="translate(123,179)"/>
<path d="M0 0 C2.475 0.495 2.475 0.495 5 1 C4.67 2.32 4.34 3.64 4 5 C2.68 5 1.36 5 0 5 C0 3.35 0 1.7 0 0 Z " fill="#FEE9C9" transform="translate(143,217)"/>
<path d="M0 0 C0.99 0.33 1.98 0.66 3 1 C2.67 2.32 2.34 3.64 2 5 C0.35 5 -1.3 5 -3 5 C-2.625 3.0625 -2.625 3.0625 -2 1 C-1.34 0.67 -0.68 0.34 0 0 Z " fill="#07303E" transform="translate(84,190)"/>
<path d="M0 0 C0.66 0.33 1.32 0.66 2 1 C1.67 3.31 1.34 5.62 1 8 C-0.32 8.33 -1.64 8.66 -3 9 C-2.01 6.03 -1.02 3.06 0 0 Z " fill="#062938" transform="translate(292,181)"/>
<path d="M0 0 C1 2 1 2 1 6 C-2.63 6 -6.26 6 -10 6 C-10 5.67 -10 5.34 -10 5 C-9.36191406 4.89042969 -8.72382813 4.78085938 -8.06640625 4.66796875 C-7.24011719 4.50941406 -6.41382813 4.35085937 -5.5625 4.1875 C-4.32693359 3.96126953 -4.32693359 3.96126953 -3.06640625 3.73046875 C-2.38449219 3.48941406 -1.70257813 3.24835938 -1 3 C-0.67 2.01 -0.34 1.02 0 0 Z " fill="#0A313F" transform="translate(250,180)"/>
<path d="M0 0 C0.66 0.33 1.32 0.66 2 1 C-0.75 7.875 -0.75 7.875 -3 9 C-3.66 7.02 -4.32 5.04 -5 3 C-4.360625 2.87625 -3.72125 2.7525 -3.0625 2.625 C-2.0415625 2.315625 -2.0415625 2.315625 -1 2 C-0.67 1.34 -0.34 0.68 0 0 Z " fill="#D6E6EA" transform="translate(107,178)"/>
<path d="M0 0 C2.475 0.495 2.475 0.495 5 1 C5.625 2.875 5.625 2.875 6 5 C5.34 5.66 4.68 6.32 4 7 C0 1.125 0 1.125 0 0 Z " fill="#22434B" transform="translate(113,155)"/>
<path d="M0 0 C0.66 0.66 1.32 1.32 2 2 C1.62793814 6.34072171 -0.22951915 10.07415115 -2 14 C-3.49341969 11.01316063 -2.40648676 9.04839022 -1.5625 5.875 C-1.27503906 4.77929688 -0.98757812 3.68359375 -0.69140625 2.5546875 C-0.46324219 1.71164063 -0.23507813 0.86859375 0 0 Z " fill="#CCDDE4" transform="translate(75,146)"/>
<path d="M0 0 C2.475 0.495 2.475 0.495 5 1 C5.33 3.31 5.66 5.62 6 8 C5.34 7.67 4.68 7.34 4 7 C4 6.34 4 5.68 4 5 C3.01 4.67 2.02 4.34 1 4 C0.3125 1.9375 0.3125 1.9375 0 0 Z " fill="#F0DEC9" transform="translate(366,107)"/>
<path d="M0 0 C0.33 1.32 0.66 2.64 1 4 C0.34 4 -0.32 4 -1 4 C-1.0825 4.763125 -1.165 5.52625 -1.25 6.3125 C-2.14615794 9.52373261 -3.21611025 10.29374499 -6 12 C-4.68139111 7.38486888 -2.78644563 3.90102388 0 0 Z " fill="#FEEBC9" transform="translate(174,87)"/>
<path d="M0 0 C1.98 0 3.96 0 6 0 C5.01 0.33 4.02 0.66 3 1 C3 3.97 3 6.94 3 10 C0.70366176 6.55549263 0.45983515 4.06187717 0 0 Z " fill="#FEF6E5" transform="translate(240,214)"/>
<path d="M0 0 C0.99 0.33 1.98 0.66 3 1 C3 2.32 3 3.64 3 5 C3.66 5.33 4.32 5.66 5 6 C2.0625 5.625 2.0625 5.625 -1 5 C-1.33 4.34 -1.66 3.68 -2 3 C-1.34 2.01 -0.68 1.02 0 0 Z " fill="#1D414E" transform="translate(137,189)"/>
<path d="M0 0 C1.32 0.33 2.64 0.66 4 1 C3.01 3.97 2.02 6.94 1 10 C0.67 10 0.34 10 0 10 C0 6.7 0 3.4 0 0 Z " fill="#183B51" transform="translate(116,68)"/>
<path d="M0 0 C1.46491133 0.37074916 2.92195569 0.77267189 4.375 1.1875 C5.59316406 1.51814453 5.59316406 1.51814453 6.8359375 1.85546875 C9 3 9 3 10.2890625 5.61328125 C10.64097656 6.79470703 10.64097656 6.79470703 11 8 C9.16399255 6.85845641 7.33125195 5.71165684 5.5 4.5625 C4.4790625 3.92441406 3.458125 3.28632812 2.40625 2.62890625 C1.6121875 2.09136719 0.818125 1.55382813 0 1 C0 0.67 0 0.34 0 0 Z " fill="#FDEFD7" transform="translate(319,54)"/>
<path d="M0 0 C2.97 0.495 2.97 0.495 6 1 C3 3 3 3 1 3 C1 3.66 1 4.32 1 5 C1.66 5.33 2.32 5.66 3 6 C1.35 5.67 -0.3 5.34 -2 5 C-2 4.01 -2 3.02 -2 2 C-1.34 2 -0.68 2 0 2 C0 1.34 0 0.68 0 0 Z " fill="#2A4E57" transform="translate(334,189)"/>
<path d="M0 0 C1.65 0 3.3 0 5 0 C4.625 1.9375 4.625 1.9375 4 4 C3.01 4.495 3.01 4.495 2 5 C1.01 4.34 0.02 3.68 -1 3 C-0.67 2.01 -0.34 1.02 0 0 Z " fill="#0B3245" transform="translate(377,184)"/>
<path d="M0 0 C3.5625 0.25 3.5625 0.25 7 1 C7.33 1.66 7.66 2.32 8 3 C7.05125 2.979375 6.1025 2.95875 5.125 2.9375 C2.09333717 2.77448174 2.09333717 2.77448174 0 4 C-0.66 3.34 -1.32 2.68 -2 2 C-1.34 1.34 -0.68 0.68 0 0 Z " fill="#D4E6EC" transform="translate(335,179)"/>
<path d="M0 0 C-2.97 1.65 -5.94 3.3 -9 5 C-9 3.35 -9 1.7 -9 0 C-3.375 -1.125 -3.375 -1.125 0 0 Z " fill="#E99343" transform="translate(211,52)"/>
<path d="M0 0 C0.5625 1.9375 0.5625 1.9375 1 4 C0 5 0 5 -3.5625 5.0625 C-4.696875 5.041875 -5.83125 5.02125 -7 5 C-7 4.34 -7 3.68 -7 3 C-3.535 2.505 -3.535 2.505 0 2 C0 1.34 0 0.68 0 0 Z " fill="#E69450" transform="translate(203,219)"/>
<path d="M0 0 C1.25541557 3.76624671 0.37061958 5.37188934 -1 9 C-1.66 9 -2.32 9 -3 9 C-3 6.69 -3 4.38 -3 2 C-2.01 2 -1.02 2 0 2 C0 1.34 0 0.68 0 0 Z " fill="#FAE3CA" transform="translate(377,215)"/>
<path d="M0 0 C2.97 0.495 2.97 0.495 6 1 C6 1.66 6 2.32 6 3 C4.68 3 3.36 3 2 3 C2 3.99 2 4.98 2 6 C1.34 6 0.68 6 0 6 C0 4.02 0 2.04 0 0 Z " fill="#EF8C46" transform="translate(180,217)"/>
<path d="M0 0 C1.32 0 2.64 0 4 0 C4 0.66 4 1.32 4 2 C3.01 2.33 2.02 2.66 1 3 C-0.20882096 5.00016466 -0.20882096 5.00016466 -1 7 C-1.66 5.68 -2.32 4.36 -3 3 C-2.34 3 -1.68 3 -1 3 C-0.67 2.01 -0.34 1.02 0 0 Z " fill="#FEF1C9" transform="translate(166,213)"/>
<path d="M0 0 C0.66 0.33 1.32 0.66 2 1 C0.02 5.455 0.02 5.455 -2 10 C-2.33 10 -2.66 10 -3 10 C-3.36923077 3.47692308 -3.36923077 3.47692308 -1.5 1.0625 C-1.005 0.711875 -0.51 0.36125 0 0 Z " fill="#DDEFF2" transform="translate(282,177)"/>
<path d="M0 0 C-0.33 0.66 -0.66 1.32 -1 2 C-3.28515625 2.4140625 -3.28515625 2.4140625 -6.0625 2.625 C-6.98160156 2.69976562 -7.90070313 2.77453125 -8.84765625 2.8515625 C-9.55792969 2.90054688 -10.26820313 2.94953125 -11 3 C-7.68381684 -0.31618316 -4.50821267 -1.6697084 0 0 Z " fill="#FEEBCC" transform="translate(229,45)"/>
<path d="M0 0 C1.32 0 2.64 0 4 0 C4.625 2.3125 4.625 2.3125 5 5 C4.01 6.485 4.01 6.485 3 8 C2.01 5.36 1.02 2.72 0 0 Z " fill="#D79754" transform="translate(159,215)"/>
<path d="M0 0 C2.31 0 4.62 0 7 0 C7 0.99 7 1.98 7 3 C5.02 3 3.04 3 1 3 C0.67 2.01 0.34 1.02 0 0 Z " fill="#042F3C" transform="translate(406,191)"/>
<path d="M0 0 C2.31 0.66 4.62 1.32 7 2 C5.515 4.475 5.515 4.475 4 7 C3.01 6.67 2.02 6.34 1 6 C0.67 4.02 0.34 2.04 0 0 Z " fill="#244756" transform="translate(77,188)"/>
<path d="M0 0 C0.66 0.33 1.32 0.66 2 1 C2.625 3.5625 2.625 3.5625 3 6 C1.35 6 -0.3 6 -2 6 C-1.34 4.02 -0.68 2.04 0 0 Z " fill="#B7D7E0" transform="translate(287,181)"/>
<path d="M0 0 C0.66 0.33 1.32 0.66 2 1 C2.625 3.5625 2.625 3.5625 3 6 C1.35 6 -0.3 6 -2 6 C-1.34 4.02 -0.68 2.04 0 0 Z " fill="#BED7E3" transform="translate(384,181)"/>
<path d="M0 0 C0.8125 1.6875 0.8125 1.6875 1 4 C-1.4375 6.75 -1.4375 6.75 -4 9 C-4 5.00095031 -2.27413033 3.19799578 0 0 Z " fill="#EE974F" transform="translate(152,95)"/>
<path d="M0 0 C1.31611677 0.95336021 2.62778961 1.91285774 3.9375 2.875 C4.66839844 3.40867187 5.39929688 3.94234375 6.15234375 4.4921875 C8 6 8 6 9 8 C7.68 7.67 6.36 7.34 5 7 C5 6.34 5 5.68 5 5 C3.68 4.67 2.36 4.34 1 4 C0.67 2.68 0.34 1.36 0 0 Z " fill="#FFF2D6" transform="translate(336,76)"/>
<path d="M0 0 C2.64 1.65 5.28 3.3 8 5 C4.71023192 6.09658936 3.28696233 5.79953138 0 5 C-0.33 4.01 -0.66 3.02 -1 2 C-0.67 1.34 -0.34 0.68 0 0 Z " fill="#FEF6E0" transform="translate(322,65)"/>
<path d="M0 0 C1.98 0.495 1.98 0.495 4 1 C4.33 2.32 4.66 3.64 5 5 C3.02 5 1.04 5 -1 5 C-0.34 4.01 0.32 3.02 1 2 C0.67 1.34 0.34 0.68 0 0 Z " fill="#264556" transform="translate(294,190)"/>
<path d="M0 0 C2.31 0.66 4.62 1.32 7 2 C6.67 2.99 6.34 3.98 6 5 C4.02 5 2.04 5 0 5 C1.32 4.67 2.64 4.34 4 4 C4 3.34 4 2.68 4 2 C2.68 2 1.36 2 0 2 C0 1.34 0 0.68 0 0 Z " fill="#BCD7E1" transform="translate(140,186)"/>
<path d="M0 0 C0.6875 1.625 0.6875 1.625 1 4 C-0.4375 7.25 -0.4375 7.25 -2 10 C-2.66 10 -3.32 10 -4 10 C-2.8905928 6.51329166 -1.73662334 3.22515763 0 0 Z " fill="#FEE7C7" transform="translate(167,99)"/>
<path d="M0 0 C0.99 0.33 1.98 0.66 3 1 C2.01 2.98 1.02 4.96 0 7 C-0.33 7 -0.66 7 -1 7 C-1.04254356 5.00045254 -1.04080783 2.99958364 -1 1 C-0.67 0.67 -0.34 0.34 0 0 Z " fill="#EBF6F8" transform="translate(276,187)"/>
<path d="M0 0 C0.99 0 1.98 0 3 0 C3 1.98 3 3.96 3 6 C2.67 5.34 2.34 4.68 2 4 C1.01 4 0.02 4 -1 4 C-0.67 2.68 -0.34 1.36 0 0 Z " fill="#082E46" transform="translate(270,176)"/>
<path d="M0 0 C0.33 0 0.66 0 1 0 C1 2.64 1 5.28 1 8 C0.34 8 -0.32 8 -1 8 C-1.33 8.66 -1.66 9.32 -2 10 C-1.54177532 6.53058454 -1.10868317 3.32604951 0 0 Z " fill="#EA9144" transform="translate(128,150)"/>
<path d="M0 0 C0.66 0.33 1.32 0.66 2 1 C1.67 3.31 1.34 5.62 1 8 C-1 5 -1 5 -0.625 2.3125 C-0.41875 1.549375 -0.2125 0.78625 0 0 Z " fill="#18313F" transform="translate(172,106)"/>
<path d="M0 0 C0.66 0.33 1.32 0.66 2 1 C1.01 2.98 0.02 4.96 -1 7 C-1.66 6.67 -2.32 6.34 -3 6 C-2.625 3.5625 -2.625 3.5625 -2 1 C-1.34 0.67 -0.68 0.34 0 0 Z " fill="#E58D33" transform="translate(167,96)"/>
<path d="M0 0 C2.31 1.98 4.62 3.96 7 6 C3.79604584 6 1.90600261 5.25664978 -1 4 C-0.67 2.68 -0.34 1.36 0 0 Z " fill="#FEF0D2" transform="translate(345,84)"/>
<path d="M0 0 C0.99 0.33 1.98 0.66 3 1 C2.01 2.98 1.02 4.96 0 7 C-0.66 6.01 -1.32 5.02 -2 4 C-1.34 2.68 -0.68 1.36 0 0 Z " fill="#E9F6FA" transform="translate(116,63)"/>
<path d="M0 0 C0.66 0.33 1.32 0.66 2 1 C1.01 1.33 0.02 1.66 -1 2 C-1 2.66 -1 3.32 -1 4 C-2.98 4.99 -2.98 4.99 -5 6 C-5.66 5.34 -6.32 4.68 -7 4 C-1.7265625 0.77734375 -1.7265625 0.77734375 0 0 Z " fill="#E7984A" transform="translate(205,43)"/>
</svg>
